
        <svg xmlns="http://www.w3.org/2000/svg" xmlns:xlink="http://www.w3.org/1999/xlink" version="1.1" width="3159.341727793883" height="3146.999123929184" viewBox="0 0 3159.341727793883 3146.999123929184">
			
			<g transform="scale(7.967086389694136) translate(10, 10)">
				<defs id="SvgjsDefs2062"><linearGradient id="SvgjsLinearGradient2069"><stop id="SvgjsStop2070" stop-color="#8f5e25" offset="0"/><stop id="SvgjsStop2071" stop-color="#fbf4a1" offset="0.5"/><stop id="SvgjsStop2072" stop-color="#8f5e25" offset="1"/></linearGradient></defs><g id="SvgjsG2063" featureKey="rootContainer" transform="matrix(3.662109320430319,0,0,3.662109320430319,0.08434161701929674,0)" fill="#000"><g xmlns="http://www.w3.org/2000/svg"><path d="M1.4 6.1zm-.3 86zm.5-25zm73 34.4zm-6.1.4zM76.8.5zm-69.1.8zM101.9 3a.7.7 0 0 1-.1-.4V2a.4.4 0 0 0-.1-.2l-.7-1 .7.7h-.2L101 1h-.8c.1 0 .1.1 0 .1h-.8L97.7.9h-.1l.4-.2c.1-.1.1-.1 0-.2h-1.2l-.5.2h-1.7c-.6-.1-.9.2-.7.5h.1c-.2.1-.5.1-.6.3l-.3.3h-.5c.2-.3.1-.4-.4-.4l-1-.2-.8-.5-1 .3h-.1a1.2 1.2 0 0 1-1.1 0L87 .8h-.6c-.1.1-.1.1 0 .2s.1.2-.1.3h-.2l.2.2h-.8v.1a2 2 0 0 0-.1-.4L85 1h-2.8l-.5-.2a2.4 2.4 0 0 0-1.3-.2h-1.1a1.4 1.4 0 0 0-.9.1h-.3l.4.2a.2.2 0 0 1 .1.2h-.3l-.8-.2a1.4 1.4 0 0 1-.8-.3c-.1-.1-.1-.2.1-.2h-3l-.7.2a.7.7 0 0 0-.6.3h-1.9l-.5-.1-.3-.2h-.4c-.1.1.1.2.2.3s.1.1-.1.2h-.3c.1.1.1.2 0 .2h-.5c-.3 0-.5-.1-.7-.2a2.4 2.4 0 0 0-.8-.5h-.7l.4.2c.1 0 .1 0 0 .1h-.1c-.2 0-.4-.1-.4-.2h-.8v.2a1.4 1.4 0 0 1-1-.3V.4h-.1l-.5.5h-.5c-.1-.1-.1-.1.1-.2l.9-.3H63a1.1 1.1 0 0 0-1.1-.1H58v.3h.2c.5.1.5.1.3.2s-.3.3-.3.5h-1.4c-.3 0-.5-.2-.2-.3s.6-.3.5-.6V.2h-2.5l-1 .5-.3.4h-.5c0-.2 0-.4.2-.6s0-.1 0-.2h-1.2l.5.4h-.4c-.4 0-.4 0-.5.2h-.7a.4.4 0 0 0-.4-.2h-1.1v.2s0 .1-.1.2h-.4a.7.7 0 0 0-.6.2h-.7c.3-.1.3-.3 0-.4a1.3 1.3 0 0 1-.7-.3h-.3c-.2 0-.3-.1-.2-.2s-.1-.3-.3-.3h-.5c-.3.1-.3.3 0 .5s.2.1.1.2 0 .1 0 .1l.5-.2h-.6l-.8-.2c-.2-.1-.3-.2-.1-.3h.1l-.5.3h-.5c-.2 0-.3.1-.2.2h-1.1l-.2.2a1.1 1.1 0 0 1-.9.3h.1c.1-.1.1-.2-.1-.2s-1 0-.9.3.1.2 0 .3l-.2.2-.5.2H36l-1.1-.5h-.4l-.3-.6V.7h-.5c-.2 0-.2.1-.2.2a1.7 1.7 0 0 0-1.5.4l-.2.2h-2.9c.4-.1.5-.2.2-.3h-.3v.4h-.7l.7-.2a1 1 0 0 0-.8-.1l-1 .1a1.4 1.4 0 0 0-1.2-.1c-.2 0-.3 0-.3-.2s0-.2-.3-.2a2.1 2.1 0 0 0-1.1.2h-.7l-1-.1v.4c.1 0 .1 0 0 0V1h-.1c-.3-.2-.7-.3-.8-.6h-1L19.2.1h-.5l-.4.3H17l-.3.3h-.3c-.3-.2-.9-.1-1.3-.2h-.8c-.3 0-.5.2-.4.3l.2.3h.9c.2 0 .2.1.1.2h-.7l-.2-.2v.3h-.4v.1h-.5l-.6-.3a2.6 2.6 0 0 0-1.4-.5c-.2 0-.5.1-.5.2h.7l-.3.5c0 .1 0 .1.1.1H9.1v.1l-.5-.2a1.2 1.2 0 0 0-.8 0H6.7a1.2 1.2 0 0 0-.9.1 2.3 2.3 0 0 1-1.2.1c-.1-.1-.1-.2.2-.2h-.2V.8h.2c0 .1 0 .2-.1.3l.7-.1.3-.2c-.1-.2.2-.3.1-.5h-.3c-.2.3-.3.3-.7.2L3.6.3H2.5L.9.6l.2 1.2v.4c.2-.3.4.1.6-.3l.7-.7v.1l-.6.6.2.2a.5.5 0 0 1 .2.5 2.3 2.3 0 0 1-.1.7 2.5 2.5 0 0 0-.3.9V5c0 .3-.1.4-.3.5h-.2c-.1 0-.1.2-.1.4v.2l.2.2a.5.5 0 0 1 0 .4c-.1.2-.2.3-.3.3s-.3.1-.3.6a.8.8 0 0 0 0 .2 1.1 1.1 0 0 0 0 .3h.1l.2-.3h.1a.6.6 0 0 1 0 .3 1.3 1.3 0 0 1-.1.4C1 8.8.8 9 .6 9v.2c.1.1.2.5.3.5s.1.3.1.6.1.6.3.4h.3c.1.1.1.1.1.6-.1 0-.1.1-.1.3v.7h-.3a1.2 1.2 0 0 0-.4-.7H.8a1.2 1.2 0 0 0 0 .3 1.7 1.7 0 0 0 .3.7.7.7 0 0 1 0 .6 1.1 1.1 0 0 0-.1.6l.5.5c-.1.3-.2.3-.3.6a1.8 1.8 0 0 1-.3.8c-.1.1-.1.7 0 .7s.3.8.6.9.1.3 0 .4-.1.2-.2.2h-.1c-.2-.1-.2-.1-.2.4H.8c-.1 0-.1.1-.1.2v-.1l.2-.3.4.8v1.5a2 2 0 0 1-.2 1c-.1 0 0-.1 0-.2s0-.3-.1-.3l-.2.2c-.2.1-.3.5-.1.8l.3.8a.4.4 0 0 1 0 .1v.2l-.2-.2c0-.1-.1-.1-.1 0a.9.9 0 0 0 0 .3 3.2 3.2 0 0 0 .1.4c0 .1.1.3.2.2l.3-.2c.1-.1.2-.2.3-.1a.8.8 0 0 1 .2.6l-.3.4a1.7 1.7 0 0 0-.2.6H1c-.1.2 0 .5-.1.7l-.2.3a.5.5 0 0 0 0 .3l.4.6h.1c.2.1.2-.3.3-.5h.3a2 2 0 0 0 .3.8.5.5 0 0 1 0 .4L2 28h-.1a.6.6 0 0 0-.1.3 2.3 2.3 0 0 1-.1.7 2.5 2.5 0 0 0 0 .9l-.3-.6a1.1 1.1 0 0 0 0-.6c-.1-.2-.2-.4-.3-.4s-.2.2-.2.5a.4.4 0 0 0 .1.3H.9a.5.5 0 0 1 .1.4v.2H.7v.2l.3.4c.1.1.1.6-.1.6s-.4.4-.4.9 0 .4.1.3.2 0 .3.3 0 1.1.2 1.5a.4.4 0 0 1 0 .2A13.3 13.3 0 0 1 .9 36a.8.8 0 0 0 0 .4H1c0 .2-.1.3-.1.4l.2.2v.5l.2.4v.3a.8.8 0 0 1 0 .3 1 1 0 0 1-.2.6c-.1.1-.2.1-.3.3s-.1 0-.1-.2a1.7 1.7 0 0 1 .1-.8c.1-.2 0-.5-.1-.6s-.2 0-.3.2a6.9 6.9 0 0 0-.4 2c0 .1 0 .2.1.1h.5v.2a3.7 3.7 0 0 0-.4 1.1v.3c0 .5.1.8.3.9s.1.3.1.4l-.1 1a4.2 4.2 0 0 1 0 1.4v.2c-.2.4-.2.4 0 .7a.7.7 0 0 1 .1.4 1 1 0 0 0 .1.5l.2-.3.3-.9c.1-.2.1-.2.2 0s.1.5.1.7a1.6 1.6 0 0 1 0 .3.9.9 0 0 1 0 .3 1.2 1.2 0 0 0-.2.7h-.2c-.1-.3-.2-.7-.4-.9.1.5 0 .6-.1.7H.4a.6.6 0 0 0-.2.5c0 .1 0 .2.1.3h.2c.1 0 .2.2.2.4s0 .4-.1.4-.3-.1-.5.3a.7.7 0 0 0 0 .4v.2a2 2 0 0 1 .2 1.4c0 .2 0 .5-.1.8a1 1 0 0 1 .2.8v.9h.1c.4.2.5.4.6 1.3v.2l-.2-.3v.7c-.1.3-.1.3-.3.5H.3v.2l.3.3h.3c0 .3.1.2.2.3-.1.4-.1.4-.3.4H.7a.2.2 0 0 0 0 .2 2.5 2.5 0 0 1 .1 1H1a.3.3 0 0 0 .3-.1v.6c-.2.1-.3-.1-.4 0s-.1 0-.1-.4a3 3 0 0 0-.1 1 .5.5 0 0 1-.2.4.3.3 0 0 0-.1.3l.4.6-.3.3-.4.3c.1.4.2.7.3.8s.2.2.2.4h.3a.2.2 0 0 1 0 .1H.7V63a.9.9 0 0 0 0 .6 2.6 2.6 0 0 1 .3 1s.1-.1.1-.2a1.8 1.8 0 0 1 .1-1 .6.6 0 0 1 .3.4v.2c0 .1.1 0 .1-.1v-.6l.2.2c.2.2.3 0 .4-.2l.2.6a.7.7 0 0 1 .1.5 2.9 2.9 0 0 0 .1 1.3 8.4 8.4 0 0 0-.3 2h-.2v-.8H2c-.2 0-.3-.2-.4-.5v-1.3c0-.1-.1-.3-.1-.3l-.2.2a2.6 2.6 0 0 0 0 .3v.6a.3.3 0 0 1 0-.1H.9a3.4 3.4 0 0 0 .4 1.3.4.4 0 0 1 0 .4c-.1.1-.2.3-.4.1a.4.4 0 0 0-.6-.1v.7c0 .2 0 .1.1.2l.2.2a1 1 0 0 0 .3.6.9.9 0 0 1 .1.7l-.2.5L.4 72a.5.5 0 0 0 .1.4h.1c.2 0 .2 0 .2.4s.1.6.1.9l-.3.3a1.1 1.1 0 0 0-.3.8v.5c0 .2 0 .4.2.3s.2 0 .3.2l.2.5v.6h.2a2.6 2.6 0 0 0 0-.8c0-.2.1-.3.1-.3h.1c.1 0 .1.2 0 .4v.4c0 .2.1.4.1.3l.4-.3a5.2 5.2 0 0 1 0-1.6v-1a.6.6 0 0 1 0-.3h.2c.1 0 .1.1.1.3v.9a4.3 4.3 0 0 1 0 1.1.3.3 0 0 0 .1.3h.1v1.5a.9.9 0 0 1-.2.6.5.5 0 0 0-.1.4v.4a.7.7 0 0 1-.1.6l-.3-.4-.3.6v.2a2.7 2.7 0 0 0 0 1.1c.1.4.2.6.4.4l.2-.3h.1a1.6 1.6 0 0 0-.1.4 7.9 7.9 0 0 1 0 1.8c0 .2-.1.5-.3.5h-.1v.2a1.6 1.6 0 0 1 .2 1.1c0 .1-.1.2-.1.3l.3.9h.2a.4.4 0 0 1 .1.3v.2a.8.8 0 0 0-.2.6 13.1 13.1 0 0 1-.1 1.8l-.2.3a4.8 4.8 0 0 0-.4 2.8v.2c0 .1-.1 0-.2-.2V92c0 .2 0 .5-.1.7l-.2.9.2 1a6 6 0 0 0 .1 1.1 1.1 1.1 0 0 1 0 .4c-.1.3-.1.5-.2.8a5.9 5.9 0 0 0 0 .8h.2v.3a3.4 3.4 0 0 0 .2 1.1 5.2 5.2 0 0 0 .1-1 1.3 1.3 0 0 1 .1-.4 3.3 3.3 0 0 0 .4-1h.1a6.8 6.8 0 0 0 .2 1.6 10 10 0 0 1 0 1.8h.1l1.1.3H4l.6-.2h-.2c.2-.1.2 0 .2 0h.3c.4.2.4.2.7 0l.4-.2.8.3h1c-.3.2.1.3.5.3 0-.2 0-.3.3-.5a1 1 0 0 0 .8.1h1c.6.2 1.5.1 1.9.4h1l.4-.2a2 2 0 0 1 1.4.1l.4.2h.7c.6-.1.7-.1 1 .1h3.1v-.1s0-.2.2-.2h.4l.4.2h.2a1.5 1.5 0 0 0 .9.2H25c.2.2.3.1.6 0h.5a.4.4 0 0 0 .5 0 1.3 1.3 0 0 1 1-.1h.3l.3-.2h.4c.3 0 .5.1.5.2s.1.2.4.2.6.1.8.1h1.3a6.1 6.1 0 0 1 2.5 0h.7l.2-.3a.6.6 0 0 1 .5-.2l.6-.2.4-.2a1.8 1.8 0 0 1 1.1-.2h.6a1 1 0 0 0 .8-.1 2 2 0 0 1 1.2 0c.2 0 .2.2.1.2h-.5a.8.8 0 0 0 0 .2c0 .1.2.2.4.1l1.1-.2h.6a1.9 1.9 0 0 1 1.2.2h1.1c.3.1.4.3.8.3l.9-.3h4.3c.1-.1.3-.1.5 0h.7l.2-.2h.5c1.2-.1 2.4-.1 3.6-.1h.1c.1 0 0 .1-.1.1s-.6.2-.3.4.1.2.1.3h.9l.3-.3a1.6 1.6 0 0 0 .1-.4l.4-.2h.3l-.5-.2h1.1l.3.5c.1.1 0 .2 0 .3h.1c-.1 0-.1-.1-.1-.1h-1a3.8 3.8 0 0 0 1.5 0c.2-.2.7-.3.5-.6h.2l.5-.2a.9.9 0 0 1 0-.2c0-.1.1-.2.3-.2h.7v.6h.5c-.4 0-.5.1-.5.3h1.7c.3 0 .6 0 .8.2h.1a3.4 3.4 0 0 0 2-.1h1c.2 0 .3-.1.2-.2l-.2-.3h.7c.3 0 .4.1.7.1v-.2c0-.1 0-.1.1-.1h.1a.1.1 0 0 1 0 .1l-.2.2a2.2 2.2 0 0 1 1 .1v.5h-.9c.1.2.7.2.7.4h.5l1.1.2h.3l.2-.4c-.1-.2.1-.3.4-.3l-.3-.2.2-.2h.6a.7.7 0 0 0 0-.2c0-.1 0-.1.1-.1h.3a1.5 1.5 0 0 1 .8.4l.4.2 1 .2h1.3a3.5 3.5 0 0 0 1.4.3c.3 0 .6-.1.5-.2l-.2-.6c0-.1.1-.2.4-.2s.4 0 .4.2 0 .3.4.4l.5.2a.5.5 0 0 0 .4.2h1.9l.5-.3c.2-.2.6-.1.9-.1h.7v.1c0 .1.2.2.6.1h.5c-.1-.1.1-.2.3-.3h.5c.2.1.3.2.2.3v.2h.3l.6-.2a10.5 10.5 0 0 1 2 0l1.4-.5h.9c.3 0 .4.1.2.3H91a1.7 1.7 0 0 0 .9.2c.3 0 .4.1.5.2a.6.6 0 0 0 .6 0h.1c.1-.2.5-.4 1-.3h.9c0 .2.1.2.4.3a5.6 5.6 0 0 1 1.5.2H98a.8.8 0 0 1-.7-.3h.6l.9.3c-.1 0-.1 0 0 0s0 .1 0 .1h.4l.8-.3h.5c.3 0 .4-.1.4-.2s0-.2-.2-.2h-.6c-.1 0-.1-.1 0-.2h-.7l-.6.2h-.2v-.1h.8a2.4 2.4 0 0 0-1.9-.1l-.6-.2a1.4 1.4 0 0 0-.8-.1c-.4 0-.5.1-.5.3s-.1.2-.2.2h-.5c.1-.1.1-.2-.3-.3h6.4v-1.4a.5.5 0 0 0 .1-.4h-.1V79.8a4.9 4.9 0 0 0 0-1.4V64.8h.1c0-.6.1-1.2 0-1.8a1.3 1.3 0 0 0-.2-.6v-3.7l.2-.9a3.1 3.1 0 0 0 .1-1.1 6.2 6.2 0 0 1 0-1.7 5.9 5.9 0 0 0 0-.6 1.9 1.9 0 0 0-.1-.7l-.2-.4v-2.7l.2-.6a1.8 1.8 0 0 0 .1-.7 5.9 5.9 0 0 0-.1-1.5 5.4 5.4 0 0 1-.1-1v-3.6a4.6 4.6 0 0 0 .1-1.2v-2.1l.3-1.3v-.3a1.4 1.4 0 0 1-.1-1.2l.2-.7a9.7 9.7 0 0 0 .2-1.5v-1.6a5.9 5.9 0 0 0 0-.8 4.4 4.4 0 0 1 .1-1.4 1 1 0 0 0 0-.3v-.2h-.1c-.1.1-.1.4-.3.4a13.8 13.8 0 0 1 .1-2 2.7 2.7 0 0 0 0-.5h-.5v-2.1a.6.6 0 0 0 0-.3v-3.5a3.1 3.1 0 0 0 .5-1.3 1.8 1.8 0 0 0-.3-.6l-.2-.3V20h.1c.1.1.2.2.3.1a.8.8 0 0 0 .2-.7 4.4 4.4 0 0 1 .2-1.9 1.6 1.6 0 0 0 0-.4h-.1a.4.4 0 0 1-.1-.4c0-.2.1-.1.2-.1h.1c0-.4 0-.8-.1-1.2s-.1-.5-.1-.7a4.2 4.2 0 0 1 0-.6v-1.3l-.3-1a2.2 2.2 0 0 1 0-1.2l.3-1.4c.1-.5.1-1.1.2-1.7a.5.5 0 0 0 0-.2 1.7 1.7 0 0 0 0-.3l-.3-1v.9c0-.3.1-.5.1-.8v-.3a2.3 2.3 0 0 1 .2-1.1 4.4 4.4 0 0 0 .2-1.4zM88 1.6zM1.6 20.7c0-.1.1-.1.1 0zm.1 1.2a.2.2 0 0 1 0-.2h.1v.2zM1.3 40v.4h.1a.4.4 0 0 1 0 .1c-.1 0-.1-.1-.1-.2V40zm0 5.1a1.3 1.3 0 0 1 0-.3v-.2.5zm.1-2c-.1.5-.2.6-.4.2a1 1 0 0 1 0-.3l.5-.3a1.3 1.3 0 0 1-.1.4zM.7 75zm.3-3.5a.6.6 0 0 1 0-.2c0-.2.1-.2.2-.2v.2c0 .2-.1.4-.2.2zm.7-.8c0 .1-.1.2-.2.1l-.2-.4a.7.7 0 0 1 0-.3V70h.4zm.6 2.3h-.1v-.2c.2.1.2.2.2.3zm0-1.2c0-.1 0-.2.1-.1.1.2 0 .3 0 .2zm-1 25.4zm.9-2h-.1v-.3a1.2 1.2 0 0 1 0-.3l.2.2a.6.6 0 0 1-.1.4zm94.7 6.1h.4l-.4-.2v.2zm-.2.5v.1h-.4v-.1zM94.6 1.6s-.1 0 0 0zm-12.8-.4zm-.8.2h-.5c-.1.2.2.1.5.1zM61.1.5zm-6.4.6zm-3.5.6h1.7a.1.1 0 0 1 .1.2h-1.9v-.2zm-10.4 0zm-17.3-.2h.2a1.7 1.7 0 0 1 1 .3h-1.2a.3.3 0 0 1 0-.3zm-1.2.2zM20 1.1h.3c.1 0 .2.1.1.2H20l.1-.1zm-1 .2zM17.9.8h.1c-.1.1-.2 0-.1 0zm.1.4l-1 .2h-.1a1.7 1.7 0 0 1 1.1-.3zM14.6.9l1.2.3s.1.1 0 .1h-.5zm6 .9zM3.4 1.7zM3 .6zm-.6 11zm-1 38.5a.6.6 0 0 1 0 .1h-.1c.1-.3.1-.3.1-.1zm-.4-.8zm-.1.8a.3.3 0 0 1 0 .1c.1-.2.1-.3.1-.1zm.5 7.4c-.1.3-.2.2-.3-.2a.6.6 0 0 0-.1-.4c.2-.2.2-.2.3.3l.2-.5h.1a.6.6 0 0 1 0 .3 1.3 1.3 0 0 1-.1.5zm.3-3.3c-.2 0-.2.3-.3.6h-.1a4.9 4.9 0 0 0-.2-1.9l-.2-.3H.7c-.1.1-.1 0-.1-.3v-.4c.2-.1.4-.1.5-.3s.3 0 .5.1.1.1.1.5v.2c-.1-.2-.2-.3-.2-.2a.7.7 0 0 0 0 .4l.3 1.2c0 .1.1.1.2 0-.1.1-.1.4-.2.4zm-.1-4.1V49l.4-.5v1c0 .3-.1.6-.3.6zm.2-3zm.2-8.9zm.1 7.9zm-.3-9.3c-.1.2-.2-.1-.2-.3a1.3 1.3 0 0 1 0-.6.6.6 0 0 0 0-.4V35a2.5 2.5 0 0 1 0-1.2h.1v.2c0 .2.1.3.2.3H2a2.4 2.4 0 0 0 0 1.3l.3.9c-.2-.1-.3.1-.5.3zm.4-17.3l-.2.2c-.1 0-.2-.3-.2-.5s.1-.2.2-.2l.2.2a.6.6 0 0 1 .1.4zm.1-11.2a.8.8 0 0 1-.1-.5v-.2a1.1 1.1 0 0 1 .1.7zm.1 5.7zm0 43.7a.2.2 0 0 1 0-.2v.3zm-.1 27.4v-.2a.5.5 0 0 1 0-.1h.2v.5h-.2zm.1 5v-.2a.5.5 0 0 1 .1-.4v.6zM13 100.8zm6.6-.4zm3.8.7h-.6c-.1 0-.2-.1-.1-.2h.7zm1.2-.2zm9 .3zm6.6-.8h-.3v-.1h.3zm2.3.5h-1v-.2h.8c.1.1.2.2.1.2zm3.2-.2c-.2.3-.7.3-1.2.3h1.2zm3.7.4h-2.9c-.1-.1 0-.2.3-.3h2.5zm1.5-.2l-.3.3h-.4l.2-.6h.5c-.1.1 0 .2-.1.3zm1.3 0zm1.7-.3zm1.5.3H55s-.1-.1 0-.1h.3zm3.1-.4h-.3c0-.1 0-.1.1-.1h.2zm4.5.8zm6-.9h-.3c-.1-.1 0-.1.2-.2h.1zm1.4 1zm4.3-.6c-.1-.2 0-.3.3-.4l-.8.2v.3h-.3c-.2-.3.1-.4.7-.4h.5v.5zm1.8-.2h-.2v-.1h.2zm6 .4zm1.2-.4c-.1 0-.1-.1-.1-.1h.1zm3.8.1c-.1 0-.2 0-.1-.1h.1zm1.3.2zm5.5.2zm-32.7-.8a.8.8 0 0 1 .6 0h-.6c-.3-.1-.4-.1-.3-.2h.4v.2zM101 4.7v-.6h.1c.1 0 .2.2.2.4v.3zm.3 12.8a1.2 1.2 0 0 1 0 .7h-.1c-.2-.1-.2-.4-.2-.8v-.2zM1.7 85.7zM.9 66.6zm1.4 10.5zM2 34.3z"/><path d="M.3 66.8a.4.4 0 0 1 .5-.2h.1l.2-.8-.5-.9H.4L0 65a.5.5 0 0 0 0 .3c0 .2.1.4.2.4h.3c-.1.3-.1.8-.3.8v.2c-.1.1 0 .2.1.1zm.6-.2zm37.2 35.3zM8.7 1c.3 0 .4-.1.4-.3s0-.2-.3-.2a1 1 0 0 1-.8.1h-.4c-.2.1-.2.3.1.4s.1.1 0 .2a.7.7 0 0 1 .5-.2zM3.5 101.5c.5.1.5.1 1.6 0l-.7-.2zm-2-96.9h.1a4.7 4.7 0 0 1 0-.6 1.3 1.3 0 0 0-.2-.9 6.9 6.9 0 0 1 .1 1.5zm52.8 97.6c-.1 0-.1.2.1.2h-.1zm24.7-.1h-.2l-.2.3h.2l.4-.2zm-77.5-12zm.2-1c0-.2-.1-.2-.2-.2s-.1.1-.1.2v.7a1.5 1.5 0 0 0 .3-.7zm.1-1.4zm-.3-.6c.1.2.1.7.3.6l-.2-.6h-.1zm86.7 14.7h-.4c-.1 0-.2.1-.1.2h.7c.1 0 0-.1-.2-.2zm-34.5-.3c-.2 0-.3.1-.2.1l.4.2h.1c.1 0 .2-.2.2-.2h-.5zM35.8.7c.1-.1.2-.1 0-.2zM8.4 0h-.1c-.1.2.2.3.6.4L8.6 0zM49 .8c.1-.1.1-.2 0-.3h-.5c0 .2.3.2.5.3zm-7.3 101zm-40-19.3v-.2c-.1 0-.1.2-.1.3s.1 0 .1-.1zM47.6.7c.1.1.1 0 0 0zM38 .7zM10.3.7zm29.6 100.6zm-1.1.1zm0 0a1.1 1.1 0 0 0 .8 0h-.8zm63.9-40.8c-.1-.1-.1-.1-.1 0a.4.4 0 0 0 .1.3h.1zm-42.9 41.5h.2c.2 0 .3 0 .3-.2h-.2zM.4 59.6v-.2H.3a.5.5 0 0 0 0 .2c0 .3.1.2.1 0zM101.8 5.8c0 .1.1.1.1-.1h-.1a.6.6 0 0 0 0 .1zM68.8.7h-.2c-.1 0-.2.1 0 .2zM1.2 80.3zM.9 92.2H1V92H.9c0 .1-.1.2 0 .2zm37.8 9.7zm-.6 0zm63.1-56.6c0 .1.1.1.1-.1h-.1a.3.3 0 0 0 0 .1zM10.7 1.4zm-8.8 66H2c0 .1 0 0-.1 0zm99.7-40.8v-.1.1zM1.9 88.1a.3.3 0 0 0 0-.1c-.1.1-.1.1 0 .1zM85.2 1zm-50 0zM1.7 85.9c0-.1 0 0 0 0zM30.3.8zm-9.1 100.3c-.1 0-.1.1.1.1h-.1zm.1 0zM1.4 99.5v-.2a.2.2 0 0 0 0 .2zm.1-.2zM7.5.6h.1-.1zm.2 0zM1.3 6.3zM50.1.4zm21.3 101.2v.3c.3-.2.3-.2 0-.3zm0 .2zm0-.2zM.7 23.9zM68.1 102zM.7 19.3zm62 82.7c-.1.1 0 .1.1.1h-.1zM.4 35.8h.1c0-.1-.1-.2-.1 0zm.1.1zm99-34.3zm.3-.1zM2.3 76.9v.1zm99.3-55.7zM30.9.8v.1-.1zm-2.8 0l-.1.1.1-.1zM8.3 101.2h.1s.1 0 0-.1h-.1zm7.8 0zM70.9.7h-.1.1zM22.7.7h-.1.1zM1.4 90.4v-.3.3zm.1-.3zm-.1.3zm0-87.3zm0 0zm37.4 98.3zm-.2.1zm-.3 0v-.2H38c-.2.2-.6.1-1 .1h-.2c.1.2 0 .4.2.5h1v-.2l.2-.2zM52.9.5zm.2-.1H53c.1.1.2.1.1 0zM38.6.5h.1-.1zm3.1 101.2zm0 0l-.2-.2v.2zm-.2-.2zm-.2.2zm-.1.1h.2c-.2-.1-.3-.1-.2 0zm27.3.1zM.7 24.6zm0 .3a.4.4 0 0 0 0-.3v.3zm0 10.2V35v.1zm.1 20.1zM35 102zm27.1-.1c.1 0 .1 0 0 0zM.6 36H.5s0 .2.1 0z"/></g></g><g id="SvgjsG2064" featureKey="nameFeature-0" transform="matrix(5.243314146411323,0,0,5.243314146411323,77.60657504941409,13.268373221302724)" fill="#ffffff"><path d="M17.92 34.88 c-0.04 0.12 -0.04 0.24 -0.08 0.36 c-0.04 0.08 -0.16 0.16 -0.24 0.16 c-0.04 0.04 -0.24 -0.24 -0.24 -0.32 s0.04 -0.16 0.08 -0.16 c0.16 -0.04 0.32 -0.04 0.48 -0.04 c-0.04 -0.32 -0.2 -0.6 -0.4 -0.84 c-0.08 -0.12 -0.2 -0.12 -0.36 -0.08 c-0.08 0 -0.16 0.04 -0.24 0.08 l-0.64 0.24 c-0.16 -0.2 -0.4 0.08 -0.6 -0.12 c-0.52 -0.04 -1.04 -0.12 -1.56 0.12 c-0.32 0.12 -0.64 0 -0.96 0.2 c-0.28 0.16 -0.6 -0.08 -0.88 -0.16 l-0.2 0 c-0.48 0 -1 -0.04 -1.44 0.04 c-0.36 0.08 -0.68 -0.08 -1 -0.08 c-0.08 0 -0.2 -0.08 -0.24 -0.16 c-0.08 -0.08 -0.12 -0.2 -0.2 -0.32 c-0.08 -0.2 -0.24 -0.36 -0.28 -0.6 c-0.12 -0.32 0 -0.68 -0.16 -1.04 c0 -0.04 0 -0.12 0.04 -0.16 c0.12 -0.44 0.04 -0.88 0.08 -1.32 l0 -1.44 c0 -0.48 -0.04 -0.96 0 -1.44 c0 -0.48 -0.16 -0.92 -0.04 -1.4 c0.04 -0.12 0.04 -0.28 0 -0.36 c-0.2 -0.4 -0.16 -0.8 -0.16 -1.24 l0 -4.2 c0 -0.12 0 -0.28 -0.04 -0.4 c-0.2 -0.28 -0.12 -0.6 -0.12 -0.92 c-0.04 -1.44 -0.04 -2.88 -0.04 -4.32 c0 -0.2 0 -0.4 -0.08 -0.56 c-0.08 -0.2 -0.08 -0.44 -0.08 -0.64 c0.04 -0.68 -0.12 -1.36 0.16 -2 l0 -0.2 c0.04 -0.6 -0.32 -1 -0.96 -1.04 c-0.28 -0.04 -0.56 0 -0.84 0 c-0.48 0 -0.96 -0.12 -1.4 0.16 l-1.08 0 c-0.56 -0.36 -1.08 -0.04 -1.64 0.12 c-0.36 0.08 -0.56 0.4 -0.56 0.76 c-0.04 0.84 0 1.68 0 2.52 c0 0.04 0 0.12 0.04 0.16 c0.16 0.28 0.12 0.56 0.12 0.84 c0.04 0.24 -0.04 0.48 0.04 0.68 c0.2 0.32 0.16 0.68 0.16 1 l0 1.28 c0.04 0.44 -0.04 0.84 0.16 1.28 c0.08 0.28 0.08 0.64 -0.04 0.96 c-0.08 0.16 -0.12 0.36 -0.12 0.56 c0 0.56 -0.08 1.12 0.16 1.68 c0 0.04 0 0.16 -0.04 0.2 c-0.12 0.16 -0.08 0.32 0 0.52 c0.08 0.16 0.12 0.4 0.04 0.56 c-0.2 0.4 -0.16 0.8 -0.16 1.2 l0 3.48 l0 7.08 c0 0.36 0.04 0.72 -0.04 1.08 c-0.08 0.32 -0.2 0.56 0 0.88 c0.04 0.08 0.04 0.2 0 0.28 c-0.28 0.6 -0.12 1.2 -0.12 1.8 c-0.04 0.28 0.16 0.44 0.48 0.44 l4.4 0 c0.16 0 0.28 -0.2 0.44 -0.08 c0.28 0.2 0.52 -0.04 0.72 0 c0.28 0.08 0.52 0.08 0.76 0.08 l1.84 0 c0.28 0 0.56 0 0.84 -0.12 c0.28 -0.08 0.64 -0.08 0.92 0 c0.32 0.12 0.64 0.12 0.92 0.12 c0.64 0.08 1.28 -0.12 1.92 0.2 c0.04 0 0.2 0 0.28 -0.04 c0.2 -0.12 0.4 -0.16 0.64 -0.16 c0.4 0.08 0.72 -0.16 1.08 -0.24 s0.56 -0.36 0.64 -0.76 l0 -0.28 l0 -1.92 c0 -0.04 -0.04 -0.12 -0.08 -0.16 l-0.12 0.08 c-0.12 0.08 -0.2 0.16 -0.32 0.2 c-0.08 0.04 -0.2 -0.08 -0.2 -0.12 c0.04 -0.16 0.12 -0.32 0.16 -0.52 c0.04 -0.16 0 -0.36 0.04 -0.56 c0.04 -0.12 0.16 0 0.24 0.04 c0.2 0.04 0.28 0 0.28 -0.16 c0 -0.2 0 -0.44 -0.04 -0.64 c0 -0.04 -0.08 -0.08 -0.12 -0.12 z M15.8 34.519999999999996 c0.12 0.04 0.2 0.12 0.16 0.24 c0 0.04 -0.04 0.04 -0.08 0.08 l-0.24 -0.24 c0.08 -0.04 0.12 -0.04 0.16 -0.08 z M17.36 35.88 c-0.12 0.04 -0.2 0.12 -0.24 0.12 c-0.08 -0.04 -0.16 -0.12 -0.16 -0.2 s0.08 -0.16 0.2 -0.12 z M15.2 36.44 c0 0.04 -0.04 0.12 -0.08 0.12 c-0.04 0.04 -0.12 0.04 -0.16 0.04 s-0.04 -0.04 -0.08 -0.08 c0.04 -0.04 0.08 -0.08 0.16 -0.08 c0.04 -0.04 0.12 0 0.16 -0.04 c0.28 -0.36 0.28 -0.36 0.64 -0.24 c0.2 0.04 0.4 0.04 0.56 0.08 c0.12 0.04 0.2 0.12 0.28 0.24 c0.04 0.04 0.04 0.16 0 0.24 c0 0.04 -0.08 0.08 -0.12 0.08 c-0.48 -0.12 -0.92 -0.12 -1.36 -0.36 z M4.04 36.52 c-0.04 0 -0.04 0.04 -0.04 0.04 c-0.08 -0.04 -0.08 -0.08 0 -0.08 z M15.56 37.12 c-0.04 0 -0.08 -0.04 -0.12 -0.04 l0.04 -0.04 c0.04 0 0.04 0 0.08 0.04 l0 0.04 z M17.6 37.44 c0.04 0 0.08 0.04 0.08 0.04 c-0.04 0.08 -0.08 0.08 -0.12 0 c0 -0.04 0.04 -0.04 0.04 -0.04 z M12.24 37.72 c-0.08 -0.04 -0.08 -0.08 0 -0.12 c0.04 0 0.04 0.04 0.04 0.08 z M2.72 38.24 c-0.04 0.04 -0.08 0.08 -0.08 0.04 c-0.08 -0.04 -0.08 -0.08 0 -0.08 c0.04 0 0.04 0.04 0.08 0.04 z M15.76 38.32 c0 0.04 -0.04 0.08 -0.04 0.12 c-0.04 0 -0.08 -0.04 -0.12 -0.08 c0 -0.04 0.04 -0.08 0.08 -0.16 c0.04 0.04 0.08 0.08 0.08 0.12 z M16.72 38.44 c-0.04 0 -0.04 0.04 -0.08 0.04 l-0.04 -0.04 c0 -0.04 0.04 -0.04 0.08 -0.04 c0 0 0 0.04 0.04 0.04 z M26.480000000000004 14.84 c0.08 0.04 0.2 0.04 0.28 0.04 c0.04 0.04 0.08 0.12 0.08 0.16 s-0.04 0.12 -0.08 0.16 l-0.16 -0.12 l-0.12 -0.24 c-0.04 0 -0.08 0.04 -0.08 0.04 c-0.12 0.56 -0.36 1.08 -0.28 1.64 c0 0.36 0.04 0.76 -0.08 1.08 c-0.12 0.28 -0.08 0.6 -0.24 0.88 c-0.08 0.32 -0.12 0.64 -0.2 0.92 c0.24 0.32 -0.04 0.6 -0.04 0.92 c0 0.52 -0.2 1.04 -0.28 1.56 c-0.04 0.16 -0.12 0.32 -0.12 0.48 c0 0.36 -0.12 0.72 -0.24 1.12 c0 0.08 -0.12 0.24 -0.08 0.32 c0.12 0.28 -0.12 0.48 -0.08 0.72 c0 0.72 0.08 1.44 -0.36 2.04 c-0.12 0.64 -0.28 1.28 -0.4 1.96 c-0.08 0.32 -0.2 0.68 -0.2 1 c0.04 0.6 -0.24 1.12 -0.2 1.68 c-0.28 0.44 -0.08 0.96 -0.36 1.36 c0 0.52 -0.12 1.04 -0.2 1.52 c-0.04 0.56 -0.28 1.12 -0.2 1.68 c-0.24 0.36 -0.12 0.76 -0.28 1.12 s-0.04 0.76 -0.12 1.12 c0 0.08 -0.04 0.16 -0.08 0.28 c-0.08 0.36 -0.2 0.72 -0.28 1.08 c-0.04 0.32 0.08 0.48 0.32 0.64 c0.36 0.24 0.8 0.16 1.2 0.36 c0.16 0.08 0.36 -0.08 0.52 -0.12 c0.08 -0.04 0.2 0.04 0.28 0.08 c0.16 0.08 0.36 0.08 0.56 -0.04 c0.16 -0.08 0.32 -0.12 0.52 0 c0.12 0.04 0.24 0.08 0.36 0.04 c0.16 -0.08 0.28 -0.12 0.44 -0.12 c0.48 -0.12 0.96 -0.24 1 -0.84 c0 -0.08 0.12 -0.16 0.16 -0.24 c0.08 -0.12 0.16 -0.24 0.16 -0.32 c0 -0.44 0.08 -0.84 0.2 -1.24 c-0.08 -0.6 0.24 -1.16 0.4 -1.72 c0.16 -0.48 0.56 -0.84 1.04 -0.84 c0.6 0.04 1.24 -0.12 1.8 0.16 c0.12 0.04 0.32 -0.04 0.48 -0.08 c0.04 0 0.12 -0.08 0.16 -0.04 c0.36 0.2 0.76 0.12 1.12 0.16 c0.08 0 0.2 0.08 0.24 0.12 c0.2 0.24 0.32 0.48 0.36 0.76 c0.04 0.36 0.04 0.68 0.16 1.04 s-0.04 0.76 0.2 1.12 c-0.04 0.4 0.16 0.8 0.2 1.2 s0.28 0.64 0.64 0.76 c0.32 0.08 0.6 0.2 0.92 0.16 c0.84 0 1.68 0 2.48 0.04 c0.6 0.04 1.16 -0.12 1.72 -0.24 c0.04 0 0.16 -0.08 0.2 -0.16 c0.12 -0.2 0.16 -0.4 0.2 -0.6 c0.04 -0.96 -0.12 -1.92 -0.44 -2.92 c-0.08 -0.24 -0.16 -0.48 -0.16 -0.72 s-0.12 -0.32 -0.28 -0.44 c-0.24 -0.08 -0.2 -0.12 -0.04 -0.36 c0.08 -0.04 0.16 -0.16 0.12 -0.24 c-0.28 -0.52 -0.04 -1.12 -0.36 -1.64 c-0.04 -0.72 -0.28 -1.44 -0.48 -2.12 c-0.04 -0.08 -0.08 -0.16 -0.08 -0.28 c0 -0.48 -0.16 -0.92 -0.2 -1.4 c-0.04 -0.44 -0.16 -0.84 -0.24 -1.28 c-0.04 -0.12 -0.04 -0.24 -0.04 -0.36 c-0.08 -0.48 -0.24 -0.96 -0.28 -1.44 c-0.08 -0.32 -0.28 -0.6 -0.24 -0.92 c0.04 -0.28 -0.04 -0.52 -0.12 -0.76 c-0.12 -0.24 -0.08 -0.56 -0.16 -0.84 c-0.12 -0.6 -0.36 -1.2 -0.28 -1.84 c0 -0.16 -0.08 -0.32 -0.12 -0.48 c-0.04 -0.44 -0.28 -0.84 -0.28 -1.28 c0 -0.52 -0.16 -1 -0.32 -1.48 c-0.08 -0.2 -0.2 -0.4 -0.2 -0.6 c0 -0.44 -0.2 -0.84 -0.2 -1.24 s-0.24 -0.8 -0.24 -1.2 c0 -0.44 -0.2 -0.84 -0.28 -1.28 c-0.08 -0.4 -0.24 -0.8 -0.28 -1.2 c0 -0.64 -0.24 -1.24 -0.52 -1.8 c-0.24 -0.4 -0.56 -0.6 -1 -0.64 c-0.32 -0.04 -0.6 0 -0.92 -0.16 c-0.24 -0.08 -0.56 -0.04 -0.84 0.08 c-0.4 0.16 -0.84 0.16 -1.2 0 c-0.28 -0.08 -0.56 -0.12 -0.84 -0.12 c-0.64 0 -1.16 0.24 -1.76 0.36 c-0.68 0.12 -0.84 0.72 -1.12 1.16 c-0.08 0.12 0.12 0.28 0.04 0.44 c-0.16 0.36 -0.12 0.76 -0.24 1.12 c-0.12 0.4 -0.04 0.88 -0.04 1.32 z M30.32 18.72 c-0.04 0.04 -0.08 0.12 -0.12 0.12 c-0.04 0.04 -0.16 0 -0.16 0 c-0.04 -0.12 -0.08 -0.24 -0.08 -0.36 c0 -0.04 0.04 -0.08 0.08 -0.12 c0.04 0 0.08 0.04 0.08 0.04 c0.12 0.08 0.2 0.16 0.2 0.32 z M28.160000000000004 19.36 c-0.04 0.04 -0.04 0.08 -0.08 0.08 c-0.24 0.08 -0.4 0 -0.56 -0.2 c-0.04 -0.08 -0.04 -0.12 0.04 -0.12 c0.24 -0.12 0.44 -0.04 0.56 0.16 c0.04 0.04 0.04 0.08 0.04 0.08 z M29.12 19.36 c0 0.04 -0.04 0.04 -0.04 0.04 c-0.04 0 -0.04 -0.04 -0.04 -0.04 s0 -0.04 0.04 -0.04 z M26.64 20.08 c-0.08 -0.12 -0.12 -0.2 -0.12 -0.24 c-0.04 -0.12 0.04 -0.16 0.16 -0.16 s0.2 0.08 0.16 0.16 s-0.12 0.12 -0.2 0.24 z M35.28 21.08 c-0.04 0.04 -0.04 0.08 -0.08 0.08 c0 0 -0.04 -0.04 -0.04 -0.08 l0.04 -0.04 c0.04 0 0.04 0.04 0.08 0.04 z M26.96 21.88 c-0.04 -0.04 -0.08 -0.08 -0.08 -0.12 s0.04 -0.08 0.08 -0.12 l0.08 0.12 z M27.76 21.76 c0.08 0.04 0.2 0.08 0.24 0.12 c0 0.04 -0.08 0.12 -0.12 0.2 l-0.16 -0.16 c-0.04 -0.04 0.04 -0.12 0.04 -0.16 z M32.24 28.04 c0 0.36 -0.04 0.68 0 1.04 s-0.12 0.64 -0.28 0.92 c-0.08 0.12 -0.16 0.16 -0.36 0.08 c-0.36 -0.12 -0.68 -0.04 -1.04 0.08 c-0.28 0.12 -0.6 0.32 -1 0.28 c-0.44 -0.08 -0.76 -0.36 -0.8 -0.8 c-0.04 -0.8 0.08 -1.56 0.48 -2.28 c0.28 -0.48 0.28 -1 0.48 -1.52 c0 -0.8 0.36 -1.52 0.48 -2.28 c0.04 -0.2 0.12 -0.4 0.12 -0.56 c0 -0.36 0.16 -0.6 0.32 -0.88 c0.08 -0.12 0.2 -0.12 0.32 -0.04 c0.2 0.08 0.36 0.16 0.32 0.4 c0 0.2 0.12 0.36 0.16 0.56 c0.2 0.68 0.36 1.36 0.44 2.12 c0 0.28 0.08 0.6 0.2 0.88 c0.12 0.44 0.16 0.88 0.16 1.32 l0 0.68 z M37.2 32.519999999999996 c0 0.04 -0.04 0.08 -0.08 0.16 c0 -0.08 -0.08 -0.12 -0.04 -0.16 c0 -0.04 0.04 -0.08 0.08 -0.16 c0 0.08 0.04 0.12 0.04 0.16 z M33.480000000000004 32.56 c0.04 0 0.04 0.04 0.04 0.04 c-0.04 0.08 -0.08 0.08 -0.08 0 z M31.64 33.76 c0 0 0 -0.04 0.04 -0.12 c0 -0.04 0.04 -0.08 0.04 -0.08 c0.04 0 0.08 0.04 0.12 0.08 l0.12 0.24 c0.08 0.12 0 0.16 -0.08 0.24 c-0.04 0.04 -0.12 0.08 -0.12 0.04 c-0.04 0 -0.08 -0.08 -0.08 -0.16 c-0.04 -0.04 -0.04 -0.12 -0.04 -0.24 z M33.480000000000004 33.8 l-0.16 0.04 c-0.08 -0.04 -0.08 -0.12 0 -0.12 c0.08 -0.04 0.12 0 0.16 0 l0 0.08 z M38.28 34.4 c0 -0.04 -0.04 -0.04 -0.04 -0.08 l0.04 -0.04 c0.04 0 0.04 0.04 0.08 0.08 c-0.04 0 -0.08 0.04 -0.08 0.04 z M33.160000000000004 34.72 c0 0.04 -0.04 0.08 -0.04 0.08 c-0.08 -0.04 -0.08 -0.12 0 -0.12 z M38.480000000000004 35.04 c0 0.04 0.04 0.04 0.04 0.08 c-0.04 0.08 -0.08 0.04 -0.08 -0.04 c0 0 0.04 0 0.04 -0.04 z M38.52 36 c0.08 0.08 0.12 0.2 0.16 0.28 c-0.04 0.04 -0.08 0.08 -0.16 0.04 c-0.08 0 -0.16 -0.04 -0.12 -0.16 c0 -0.04 0.04 -0.08 0.12 -0.16 z M34.24 36.04 l0.04 0 l-0.04 0.08 l0 -0.08 z M36.24 37.8 c-0.04 0 -0.04 0.04 -0.08 0.04 c-0.04 -0.04 -0.04 -0.08 0.04 -0.08 c0 0 0 0.04 0.04 0.04 z M35.24 38 l-0.04 0 l0.04 -0.04 l0 0.04 z"/></g><g id="SvgjsG2065" featureKey="nameFeature-1" transform="matrix(2.384096082680871,0,0,2.384096082680871,83.23943565021422,211.07679893556747)" fill="#ffffff"><path d="M23.44 38.96 c0.2 0.56 -0.16 1 -0.76 1.04 c-1.4 0 -2.8 -0.04 -4.24 0 c-0.32 0 -0.6 -0.2 -0.92 -0.24 c-0.04 0 -0.16 -0.12 -0.16 -0.2 c0 -0.92 0 -1.84 0.04 -2.76 c0 -0.12 0.08 -0.24 0.12 -0.36 c0 -0.08 0 -0.2 -0.04 -0.28 c-0.12 -0.2 -0.16 -0.4 0 -0.6 c0.12 -0.2 0.08 -0.44 0.04 -0.64 c-0.2 -0.72 -0.24 -1.4 -0.08 -2.16 c0.04 -0.2 -0.08 -0.36 0.08 -0.56 c0.08 -0.12 -0.12 -0.28 -0.12 -0.44 c-0.04 -0.2 -0.04 -0.4 0.08 -0.64 c0.04 -0.08 0.04 -0.24 0.08 -0.36 c0.04 0.04 0.12 0.04 0.16 0.08 c0.12 0.12 0.24 0.04 0.32 -0.08 c0.08 -0.08 0.04 -0.16 -0.04 -0.24 c-0.08 -0.04 -0.12 -0.16 -0.24 -0.04 c-0.08 0.08 -0.12 0.2 -0.2 0.28 c-0.04 -0.04 -0.16 -0.12 -0.16 -0.16 c0.12 -0.28 0.2 -0.52 0 -0.8 c-0.08 -0.08 0 -0.24 0 -0.36 c-0.04 -0.4 -0.04 -0.76 -0.04 -1.16 c0 -0.2 0 -0.44 -0.12 -0.64 c-0.04 -0.12 -0.04 -0.32 0 -0.44 c0.2 -0.4 0.12 -0.76 0.12 -1.16 c0 -0.12 -0.12 -0.24 -0.2 -0.4 c-0.08 -0.08 -0.28 -0.04 -0.32 0.04 c-0.12 0.28 -0.28 0.52 -0.24 0.84 c0.08 0.52 -0.28 1.04 -0.24 1.56 c-0.16 0.4 -0.32 0.84 -0.64 1.16 c-0.28 0.28 -0.24 0.28 0.04 0.6 l0.12 0.12 c0.12 0.16 0.16 0.28 0.04 0.44 c-0.16 0.12 -0.04 0.28 0 0.4 c0.04 0.04 0 0.12 -0.04 0.16 c-0.08 0.04 -0.2 0.04 -0.16 0.16 c0.08 0.16 0.12 0.28 0.08 0.44 c0 0.24 -0.04 0.28 -0.32 0.36 c-0.2 0.08 -0.28 0.2 -0.16 0.32 c0.28 0.24 0.36 0.52 0.12 0.84 c0 0.56 -0.16 1.12 -0.36 1.64 c-0.04 0.08 0 0.2 -0.04 0.28 c0 0.36 0.04 0.72 -0.04 1.04 c-0.12 0.32 -0.12 0.64 -0.16 0.96 c-0.12 0.32 -0.24 0.64 -0.32 0.96 c-0.04 0.36 -0.04 0.72 -0.04 1.08 c-0.04 0.24 0.08 0.56 -0.16 0.8 s-0.56 0.2 -0.84 0.32 c-0.12 0.04 -0.28 0 -0.4 0 l-0.96 0 c-0.4 0.04 -0.72 -0.08 -1.04 -0.32 c-0.2 -0.16 -0.24 -0.28 -0.24 -0.48 l0 -1.44 c0 -0.32 0.04 -0.64 -0.16 -0.92 c-0.04 -0.12 0 -0.28 0.04 -0.4 s0.04 -0.2 0 -0.32 c-0.16 -0.28 -0.28 -0.56 -0.28 -0.92 c0 -0.16 -0.08 -0.28 -0.12 -0.44 c-0.2 -0.72 -0.48 -1.44 -0.44 -2.24 c0 -0.2 -0.12 -0.4 -0.16 -0.6 c0 -0.08 0.04 -0.12 0.12 -0.08 s0.16 0.08 0.2 -0.04 s-0.04 -0.16 -0.16 -0.2 c-0.52 -0.2 -0.56 -0.2 -0.56 -0.72 c-0.04 -0.16 0.04 -0.2 0.2 -0.16 c0.04 0 0.12 0.08 0.16 0.08 c0.12 -0.04 0.24 -0.04 0.36 -0.12 c0.04 -0.04 0 -0.12 0.04 -0.24 c0.08 -0.12 0.2 -0.2 0.32 -0.28 c-0.2 -0.24 0.2 -0.52 -0.08 -0.72 c-0.04 -0.04 -0.04 -0.12 -0.08 -0.16 c-0.12 -0.04 -0.24 -0.04 -0.36 -0.12 c-0.2 -0.12 -0.36 -0.04 -0.48 0.08 c-0.16 0.16 -0.08 0.28 0 0.44 c0.04 0.04 0.04 0.12 0.04 0.16 c0 0.08 -0.04 0.12 -0.08 0.16 c-0.04 0 -0.16 0 -0.16 -0.04 c-0.12 -0.2 -0.2 -0.4 -0.28 -0.6 c-0.12 -0.44 -0.12 -0.92 -0.32 -1.36 c-0.04 -0.08 -0.04 -0.2 -0.04 -0.28 c0 -0.72 -0.04 -1.04 -0.24 -1.44 c-0.08 -0.08 -0.24 -0.08 -0.36 0 s-0.2 0.24 -0.2 0.4 c0.04 0.6 -0.08 1.2 0.08 1.8 l0.04 0.16 c-0.2 0.4 -0.08 0.84 -0.12 1.24 c-0.04 0.12 -0.04 0.24 -0.12 0.36 c-0.08 0.16 -0.08 0.28 0.04 0.44 c0.04 0.08 0.08 0.24 0.08 0.36 c0.04 0.28 -0.04 0.56 0.12 0.8 c0.04 0.08 0.04 0.16 0.04 0.2 c-0.2 0.28 -0.2 0.52 0 0.8 c0 0.44 0.04 0.88 -0.04 1.32 c-0.12 0.72 -0.12 0.68 0.04 1.56 c0.04 0.2 0 0.4 0 0.6 c0.04 0.2 -0.04 0.36 -0.08 0.52 c-0.04 0.2 0.12 0.4 0.08 0.56 c0 0.44 0.08 0.84 0.2 1.2 c0.08 0.2 0.2 0.4 0.16 0.56 c-0.12 0.2 -0.32 0.4 -0.52 0.56 c-0.28 0.2 -0.6 0.32 -0.96 0.32 c-0.32 -0.04 -0.6 -0.04 -0.88 -0.04 c-0.24 0 -0.52 0 -0.72 0.16 c-0.08 0.04 -0.16 0.04 -0.2 0 c-0.52 -0.28 -1.08 -0.12 -1.6 -0.12 c-0.32 0 -0.6 -0.08 -0.92 -0.24 c-0.16 -0.08 -0.28 -0.24 -0.28 -0.48 l0 -2.36 l0 -0.2 c0.28 -0.64 0.24 -1.28 0.08 -1.96 c-0.04 -0.16 0.12 -0.4 0.08 -0.52 c-0.2 -0.44 -0.16 -0.88 -0.16 -1.32 c0 -0.16 -0.08 -0.32 -0.12 -0.44 c-0.08 -0.2 0 -0.32 0.16 -0.4 c0.08 -0.04 0.12 -0.16 0.12 -0.2 c-0.24 -0.48 -0.16 -0.96 -0.16 -1.4 l0 -5.68 c0 -0.24 0.04 -0.48 -0.08 -0.72 s-0.08 -0.44 0 -0.64 c0.08 -0.24 0.08 -0.52 0.08 -0.76 l0 -1.24 c0 -0.12 0 -0.28 0.08 -0.36 c0.04 -0.08 0.2 -0.08 0.32 -0.12 c0.04 0 0.08 -0.04 0.08 -0.04 c0 -0.04 -0.04 -0.12 -0.04 -0.12 c-0.12 -0.04 -0.28 -0.04 -0.4 -0.08 c-0.08 -0.08 -0.2 -0.12 -0.16 -0.32 c0.16 -0.68 0.16 -0.92 0 -1.56 c-0.04 -0.12 -0.04 -0.24 0 -0.36 c0.08 -0.16 0.16 -0.32 0.08 -0.48 c-0.12 -0.32 -0.08 -0.64 0 -0.96 c0.08 -0.2 0.04 -0.44 -0.04 -0.68 s-0.08 -0.48 -0.12 -0.72 c0 -0.24 0.08 -0.44 0.28 -0.6 c0.04 -0.04 0.08 -0.2 0.08 -0.24 c-0.04 -0.08 -0.12 -0.12 -0.2 -0.16 l-0.08 -0.08 c0.04 -0.04 0.08 -0.08 0.12 -0.08 c0.04 -0.04 0.12 -0.04 0.2 -0.04 c0.08 -0.04 0.16 -0.08 0.08 -0.2 l-0.28 -0.36 c0.12 -0.04 0.28 -0.04 0.36 -0.12 c0.12 -0.08 0.4 -0.04 0.36 -0.32 c0 -0.16 -0.16 -0.12 -0.56 0.04 c-0.2 0.08 -0.16 0.24 -0.16 0.4 l-0.16 -0.12 c0 -0.48 -0.12 -0.96 0.04 -1.44 c0.08 -0.08 0 -0.16 0 -0.24 c-0.04 -0.48 -0.08 -0.96 -0.04 -1.4 c0 -0.24 0.2 -0.48 0.32 -0.68 c0.04 -0.08 0.16 -0.12 0.24 -0.12 c0.68 0 1.4 -0.16 2.08 0.12 c0.16 0.08 0.36 0 0.56 0.04 c0.28 0.04 0.6 -0.04 0.92 0.12 c0.16 0.12 0.4 -0.16 0.6 0.04 l0.64 -0.16 c0.16 0 0.36 0.12 0.52 0.08 c0.56 -0.2 1.16 -0.04 1.72 -0.04 c0.24 -0.04 0.4 0.12 0.4 0.4 c0.04 0.48 0.28 0.92 0.2 1.4 c0.28 0.44 0.12 1 0.32 1.48 c0.04 0.08 -0.08 0.2 -0.12 0.32 c-0.12 0.04 -0.24 0.12 -0.36 0.2 l-0.12 -0.36 c0 -0.04 -0.12 -0.04 -0.16 0 c-0.08 0 -0.08 0.08 -0.04 0.12 l0.32 0.24 c-0.08 0.16 -0.24 0.36 0.04 0.52 l0.32 0.24 c0 0.04 0 0.12 0.04 0.16 c0 0.08 0.04 0.12 0.08 0.16 l0.04 -0.04 c0 -0.08 0.04 -0.16 0 -0.2 s-0.12 -0.04 -0.16 -0.08 l0 -0.2 l0.12 -0.12 s0.08 0 0.08 0.04 l0.28 0.48 c0.32 0.76 0.4 1.6 0.6 2.36 c0 0.04 -0.08 0.12 -0.12 0.12 c-0.16 0.08 -0.24 0.2 -0.16 0.4 c0 0.08 0.04 0.16 0.16 0.08 c0.04 0 0.16 -0.04 0.16 0 c0.08 0.08 0.2 0.16 0.2 0.24 c0 0.28 0.16 0.6 0.2 0.88 s0.16 0.52 0.2 0.76 c0 0.28 0.2 0.44 0.4 0.6 c0.12 0.16 0.28 0.12 0.36 -0.04 c0.12 -0.24 0.2 -0.48 0.28 -0.72 c0.24 -0.56 0.4 -1.12 0.32 -1.72 c0 -0.24 0.04 -0.48 0.24 -0.64 c0.12 -0.08 0.04 -0.2 0 -0.32 c-0.08 -0.32 -0.04 -0.36 0.24 -0.48 c0.48 -0.2 0.96 -0.28 1.48 -0.08 c0.04 0.04 0.2 -0.04 0.24 -0.08 c0.16 -0.2 0.16 -0.56 0.04 -0.72 s-0.52 -0.28 -0.68 -0.2 l-1.12 0.48 c-0.12 0.04 -0.24 -0.12 -0.2 -0.24 c0.08 -0.24 0.16 -0.48 0.28 -0.68 c0 -0.08 0.12 -0.16 0.2 -0.16 c0.08 -0.04 0.16 0.04 0.24 0.08 c0.08 0 0.12 0.04 0.2 0.04 c0.24 -0.04 0.2 -0.36 0.48 -0.4 c0.04 0 0.08 -0.16 0.08 -0.24 s-0.04 -0.24 -0.08 -0.24 c-0.2 -0.04 -0.4 0 -0.56 0 l-0.04 0.16 c0.12 0.2 -0.08 0.28 -0.2 0.32 c-0.04 0.04 -0.2 -0.04 -0.24 -0.08 c-0.04 -0.08 0 -0.2 0 -0.32 c0 -0.08 -0.04 -0.2 0 -0.28 c0.28 -0.44 0.08 -1 0.32 -1.48 c0.12 -0.28 0.04 -0.6 0.24 -0.88 c-0.08 -0.36 0.16 -0.6 0.2 -0.92 c0.04 -0.24 0.2 -0.4 0.48 -0.4 c0.16 0 0.36 0 0.56 0.04 c0.08 0 0 0.08 0 0.12 c-0.04 0.28 0.2 0.48 0.36 0.4 c0.12 -0.08 0.12 -0.2 0.08 -0.36 c-0.08 -0.16 -0.08 -0.2 0.08 -0.2 c0.24 0 0.24 0.04 0.2 0.24 c0 0.08 0 0.2 0.04 0.24 c0.16 0.12 0.32 0.2 0.48 0.24 c0.04 0.04 0.16 -0.04 0.16 -0.08 c0.04 -0.16 0.04 -0.28 0.04 -0.44 c0.08 0 0.2 0 0.28 -0.04 c0.28 0 0.52 -0.28 0.8 0 c0.04 0 0.16 0 0.2 -0.04 c0.28 -0.2 0.6 -0.12 0.92 -0.12 c0.2 0 0.28 0.08 0.32 0.28 c0.04 0.28 0.12 0.32 0.36 0.28 c0.32 0 0.48 -0.12 0.48 -0.32 c0 -0.12 -0.08 -0.24 0.12 -0.24 c0.48 0 0.96 -0.12 1.4 0.12 c0.44 -0.24 0.44 0.24 0.64 0.36 c0.04 0 0 0.16 0 0.16 c-0.12 0.12 -0.28 0.2 -0.4 0.28 c-0.04 0.04 -0.04 0.12 -0.04 0.16 c0.04 0.04 0.12 0.08 0.16 0.08 l0.36 -0.12 c0.16 -0.08 0.28 -0.04 0.32 0.04 c0.04 0.16 0 0.36 -0.12 0.4 s-0.24 0.04 -0.28 0.08 c-0.16 0.2 -0.6 0.24 -0.36 0.64 l-0.24 0.28 c-0.08 0.08 -0.04 0.16 0.08 0.2 c0.24 0 0.32 -0.04 0.36 -0.2 c0.04 -0.04 0 -0.12 0.04 -0.2 c0.04 -0.16 0.24 -0.2 0.36 -0.08 c0.24 0.2 0.2 0.48 0.16 0.72 c0 0.04 -0.08 0.12 -0.16 0.12 l-0.48 0 c-0.08 0.04 -0.2 0.12 -0.32 0.16 c-0.12 0.08 -0.08 0.2 0 0.32 c0.24 0.2 0.48 0.12 0.72 0.12 c0.2 0.04 0.24 0.08 0.16 0.24 c-0.08 0.12 -0.04 0.24 0.04 0.36 c0.04 0.12 0.08 0.28 0.04 0.36 c-0.24 0.52 -0.12 1.08 -0.16 1.6 l0 0.48 c-0.04 0.08 -0.12 0.2 -0.16 0.2 c-0.4 -0.04 -0.44 0.32 -0.6 0.56 c-0.12 0.2 0.04 0.4 0.32 0.44 l0.16 0 c0.16 0 0.28 0.04 0.28 0.2 l0 1.16 c0 0.16 0 0.32 -0.08 0.48 c-0.2 0.48 -0.16 0.96 0 1.48 c0.08 0.16 0.08 0.36 0.08 0.56 l0 2.88 c0 0.16 -0.04 0.28 -0.24 0.36 c-0.04 0 -0.08 0.12 -0.04 0.12 c0.32 0.28 0.28 0.68 0.28 1.04 l0 1.92 c0 0.24 0.16 0.48 0.12 0.64 c-0.08 0.24 -0.16 0.44 -0.12 0.64 c0.08 0.4 -0.16 0.6 -0.44 0.76 c-0.08 0.04 -0.12 0.16 0 0.24 c0.04 0.04 0.12 0.08 0.2 0.08 s0.12 -0.08 0.2 -0.08 c0.04 0.04 0.16 0.08 0.2 0.16 c0.04 0.36 0.08 0.76 -0.28 1.04 c-0.08 0.08 -0.08 0.24 -0.04 0.36 c0 0.16 0.12 0.28 0.16 0.44 c0.16 0.36 0.2 0.72 0.2 1.12 l0 4.12 c0 0.36 0 0.72 0.12 1.12 z M17.24 10.32 c0.12 -0.08 0.08 0.04 0.12 0.12 z M23.28 10.48 c-0.04 0.12 -0.08 0.12 -0.12 0 c0 -0.04 0 -0.12 0.04 -0.16 l0.04 0 c0.04 0.08 0.04 0.12 0.04 0.16 z M3.64 10.64 c0 0.04 -0.04 0.04 -0.04 0.04 c0 0.08 0.04 0.12 0.08 0.04 c0 0 -0.04 -0.04 -0.04 -0.08 z M21.76 10.64 c-0.12 0 -0.16 0.08 -0.16 0.2 c0 0.08 0.08 0.16 0.16 0.12 c0.08 0 0.16 -0.08 0.24 -0.16 c-0.12 -0.08 -0.16 -0.16 -0.24 -0.16 z M9.56 10.68 l-0.04 0.16 c0 0.04 0.04 0.08 0.08 0.08 l0.08 -0.12 z M2.6 11.64 c0.08 0 0.12 -0.04 0.16 -0.08 c0 0.2 0.04 0.36 0.24 0.48 c0 0.04 0.04 0.04 0.08 0.04 c0 -0.04 0.04 -0.08 0.04 -0.16 c-0.04 -0.2 -0.16 -0.28 -0.36 -0.36 c0.08 -0.16 0.12 -0.32 0.2 -0.52 c0.04 -0.12 -0.12 -0.28 -0.28 -0.24 c-0.12 0 -0.28 0.04 -0.28 0.2 c0 0.2 -0.04 0.44 0 0.64 c0.04 0.12 0.12 0.08 0.2 0 z M20.8 11.04 c-0.12 -0.04 -0.16 0.04 -0.16 0.16 s0.08 0.16 0.2 0.16 l0.16 0 l0 -0.16 c0 -0.12 -0.08 -0.16 -0.2 -0.16 z M5.6 11.04 l-0.08 0.12 c0.04 0 0.04 0 0.08 -0.04 l0 -0.08 z M8.24 11.04 l-0.04 0.04 c0 0.04 0 0.08 0.04 0.08 c0 0 0.04 -0.04 0.04 -0.08 c0 0 0 -0.04 -0.04 -0.04 z M18.8 11.04 l-0.04 0.04 c0 0.08 0.04 0.08 0.08 0 c0 0 0 -0.04 -0.04 -0.04 z M5.2 11.239999999999998 c-0.04 0 -0.08 0.04 -0.08 0.04 c0 0.04 0.04 0.08 0.08 0.08 c0.12 0.04 0.24 -0.04 0.24 -0.16 c-0.08 0 -0.16 0 -0.24 0.04 z M21.6 11.399999999999999 c-0.04 0.08 0 0.2 0.04 0.28 c0 0.04 0.2 0.08 0.24 0.04 l0.12 -0.24 c-0.04 -0.04 -0.04 -0.08 -0.04 -0.12 c-0.04 -0.08 -0.08 -0.2 -0.2 -0.12 c-0.08 0 -0.16 0.08 -0.16 0.16 z M4.6 11.239999999999998 c-0.04 0.04 -0.08 0.08 -0.08 0.12 c0 0.08 0.04 0.12 0.08 0.16 c0 -0.04 0.04 -0.08 0.08 -0.12 c-0.04 -0.08 -0.04 -0.12 -0.08 -0.16 z M7.48 11.239999999999998 c-0.04 0 -0.08 0.04 -0.08 0.04 c0 0.04 0.04 0.04 0.08 0.08 c0 -0.04 0.04 -0.04 0.04 -0.08 z M6.2 11.399999999999999 c-0.04 0 -0.04 0.04 -0.08 0.04 l0.08 0.12 c0.08 0 0.12 -0.08 0.16 -0.08 c-0.08 -0.04 -0.12 -0.08 -0.16 -0.08 z M21.16 11.48 c-0.04 -0.04 -0.12 -0.08 -0.16 -0.08 c0.04 0.08 0.04 0.16 0.16 0.08 z M16.52 11.440000000000001 c-0.04 0 -0.04 0.04 -0.08 0.08 l0.08 0 l0.04 -0.04 z M19.52 12.16 l0.08 -0.12 c0 -0.04 -0.04 -0.08 -0.08 -0.08 c-0.16 -0.04 -0.28 0 -0.4 -0.16 c-0.2 -0.28 -0.24 -0.28 -0.44 -0.12 c-0.32 0.32 -0.64 0.4 -1 0.16 c-0.08 -0.08 -0.16 -0.08 -0.28 -0.08 c-0.08 -0.04 -0.2 0.08 -0.16 0.16 c0.12 0.36 0.24 0.44 0.64 0.44 c0.04 0 0.24 0 0.36 -0.08 c0.2 -0.12 0.48 -0.12 0.72 -0.12 l0.56 0 z M3.6 11.68 c-0.04 0 0 0.04 0.04 0.04 l0.04 -0.04 c0 -0.04 -0.04 -0.04 -0.04 -0.08 c-0.04 0.04 -0.04 0.04 -0.04 0.08 z M5.12 11.8 c-0.2 -0.04 -0.4 0.16 -0.4 0.36 c0 0.08 0.12 0.12 0.12 0.16 c0.28 -0.04 0.44 -0.24 0.4 -0.44 c0 -0.04 -0.08 -0.08 -0.12 -0.08 z M5.52 11.84 c0 0.04 -0.04 0.08 -0.04 0.16 l0.08 0.08 c0.04 -0.04 0.04 -0.08 0.08 -0.16 c-0.04 0 -0.08 -0.04 -0.12 -0.08 z M8.28 12.96 l-0.12 0.12 c0 0.12 0.08 0.2 0.16 0.2 c0.08 0.04 0.2 0.04 0.36 0.04 c0.08 -0.04 0.28 -0.04 0.36 -0.12 c0.24 -0.32 0.36 -0.72 0.44 -1.12 c0 -0.04 -0.04 -0.08 -0.08 -0.08 s-0.12 -0.04 -0.16 0 c-0.08 0 -0.12 0.08 -0.12 0.12 c0 0.28 -0.08 0.4 -0.4 0.4 c-0.04 0 -0.12 0.08 -0.12 0.08 c0.2 0.48 -0.24 0.24 -0.32 0.36 z M9.8 12 c-0.04 0 -0.12 0.12 -0.12 0.2 c0 0.36 0.28 0.48 0.48 0.64 c0 0.04 0.04 0 0.08 -0.04 l0 -0.08 c-0.08 -0.2 -0.12 -0.44 -0.2 -0.64 c-0.04 -0.04 -0.16 -0.12 -0.24 -0.08 z M3.44 12.239999999999998 c-0.04 0.04 -0.08 0.08 -0.08 0.12 s0.08 0.08 0.08 0.12 c0.04 -0.04 0.04 -0.12 0.08 -0.16 z M3.92 12.719999999999999 c-0.16 0 -0.32 0 -0.44 0.16 c-0.08 0.08 -0.08 0.2 0 0.2 c0.04 0 0.12 0.04 0.16 0 l0.28 -0.32 c0.04 0 0.08 0 0.12 -0.04 c0.08 0 0.12 -0.04 0.2 -0.08 c-0.04 -0.08 -0.08 -0.16 -0.16 -0.2 c-0.04 -0.08 -0.12 -0.08 -0.12 0 c-0.04 0.08 -0.04 0.2 -0.04 0.28 z M18.72 13.120000000000001 c0.08 0.2 0.16 0.36 -0.12 0.44 c0 0 0 0.12 0.04 0.12 l0.48 0.32 c0.08 0.04 0.16 -0.04 0.16 -0.12 l0 -0.28 c0 -0.16 0.04 -0.28 0 -0.4 l-0.24 -0.6 c-0.04 -0.04 -0.12 -0.04 -0.2 -0.04 c-0.04 0 -0.12 0.08 -0.12 0.12 c0 0.16 -0.04 0.32 0 0.44 z M20.64 13.280000000000001 l0.36 0 l0 0.04 c0 0.08 0 0.12 0.04 0.16 c0.04 0.2 0.2 0.24 0.32 0.12 l0.12 -0.12 c0.12 -0.12 0.12 -0.28 0 -0.32 l-0.24 0 c-0.08 0.04 -0.16 0.08 -0.24 0.16 c0.08 -0.28 -0.16 -0.48 -0.24 -0.68 c0 -0.04 -0.04 -0.04 -0.04 -0.04 c-0.04 0 -0.08 0.04 -0.08 0.08 l0 0.6 z M2.8 12.920000000000002 c0.04 0.08 0.08 0.12 0.2 0.24 c0.04 -0.12 0.12 -0.2 0.12 -0.28 s-0.08 -0.16 -0.2 -0.12 c-0.08 0 -0.16 0.04 -0.12 0.16 z M16.36 13.079999999999998 c-0.32 -0.04 -0.36 -0.04 -0.28 0.12 c0.04 0.12 0.04 0.24 0 0.36 c-0.08 0.32 0.12 0.52 0.44 0.52 c0.08 0 0.24 -0.04 0.2 -0.16 c-0.12 -0.24 0.12 -0.4 0.16 -0.6 c0 -0.08 0 -0.16 -0.04 -0.24 c-0.04 -0.12 -0.16 -0.12 -0.28 -0.04 c-0.08 0.04 -0.2 0.04 -0.2 0.04 z M3.52 15.2 c-0.16 0 -0.24 0 -0.36 0.04 c-0.08 0 -0.2 0.04 -0.12 0.16 c0.2 0.32 0.32 0.72 0.6 0.96 c0.16 0.2 0.28 0.24 0.56 0.04 c0.12 -0.12 0.28 -0.28 0.48 -0.12 c0.04 0 0.16 0.04 0.16 0 c0.08 -0.24 0.28 -0.4 0.24 -0.68 c0.2 0.08 0.36 0.32 0.6 0.16 c0.08 0 0.16 -0.12 0.12 -0.2 c-0.04 -0.12 -0.12 -0.2 -0.2 -0.28 c-0.12 -0.2 -0.16 -0.36 -0.08 -0.56 c0.16 -0.24 0 -0.4 -0.16 -0.44 c-0.32 -0.12 -0.44 -0.28 -0.48 -0.6 c-0.04 -0.28 -0.28 -0.44 -0.52 -0.56 c-0.12 -0.08 -0.36 0 -0.4 0.12 c-0.08 0.16 -0.16 0.28 -0.2 0.44 s0.16 0.16 0.24 0.24 c0.12 0.16 0.2 0.32 0.28 0.48 l-0.04 0.4 c-0.04 0.16 -0.24 0.2 -0.36 0.08 c-0.08 -0.08 -0.12 -0.16 -0.2 -0.2 c-0.08 0 -0.2 0 -0.24 0.04 c-0.08 0.04 -0.04 0.16 -0.04 0.24 c0.04 0.12 0.08 0.16 0.12 0.24 z M9.68 13.280000000000001 l0.12 -0.08 c-0.04 0 -0.08 -0.08 -0.12 -0.08 s-0.08 0.04 -0.12 0.08 z M18.64 14.36 c0.04 -0.04 0.08 -0.16 0.04 -0.16 c-0.28 -0.32 -0.52 -0.64 -0.76 -1 c-0.04 -0.04 -0.12 -0.04 -0.16 -0.08 c-0.04 0 -0.08 0 -0.08 0.04 c-0.04 0.04 -0.12 0.08 -0.08 0.12 c0 0.12 0.08 0.24 0.12 0.36 c0.16 0.36 0.48 0.56 0.72 0.84 c0.12 -0.08 0.16 -0.08 0.2 -0.12 z M19.76 13.280000000000001 c0 -0.04 0.04 -0.04 0.04 -0.08 c0 0 0 -0.04 -0.04 -0.04 l-0.04 0.04 c0 0.04 0.04 0.04 0.04 0.08 z M7.36 13.32 c-0.08 0 -0.16 0.08 -0.12 0.16 c0 0.08 0.08 0.16 0.16 0.24 l0.16 -0.24 c0 -0.12 -0.04 -0.16 -0.2 -0.16 z M20.6 13.32 c-0.08 0 -0.2 0 -0.08 0.12 c0.04 -0.04 0.08 -0.08 0.08 -0.12 z M17.4 13.760000000000002 c0 0.04 0.04 0.08 0.04 0.08 c0.04 0 0.04 -0.04 0.08 -0.04 c-0.04 -0.04 -0.04 -0.04 -0.04 -0.08 c-0.04 0.04 -0.08 0.04 -0.08 0.04 z M19.96 13.719999999999999 c0 0.04 -0.04 0.04 -0.04 0.04 c0 0.08 0.04 0.08 0.08 0.04 c0 -0.04 -0.04 -0.04 -0.04 -0.08 z M8.4 13.760000000000002 c-0.12 0 -0.28 0.28 -0.24 0.36 c0.12 0.24 0.28 0.4 0.52 0.52 l0.2 -0.08 s0.04 -0.08 0 -0.08 c-0.08 -0.28 -0.16 -0.56 -0.4 -0.72 l-0.08 0 z M10.6 13.96 c-0.16 0.12 -0.12 -0.04 -0.16 -0.08 c0.04 0.04 0.08 0.04 0.16 0.08 z M6.08 14.2 c0.16 0.16 0 0.28 -0.04 0.4 c0 0.08 0.08 0.16 0.12 0.2 c0.08 0 0.16 0 0.16 -0.04 c0.08 -0.2 0.2 -0.36 0.24 -0.56 c0 -0.08 -0.12 -0.24 -0.24 -0.28 c-0.04 -0.04 -0.16 0 -0.2 0.04 c-0.08 0.04 -0.08 0.2 -0.04 0.24 z M3.68 14.16 c-0.04 0 -0.08 -0.08 -0.12 -0.08 c-0.08 0 -0.12 0.04 -0.16 0.08 l0.12 0.08 c0.08 -0.04 0.12 -0.04 0.16 -0.08 z M22 14.36 c0 -0.12 -0.08 -0.24 -0.2 -0.28 c-0.12 0 -0.36 0.16 -0.36 0.24 c0 0.12 0.16 0.28 0.32 0.28 c0.12 0.04 0.2 -0.08 0.24 -0.24 z M6.96 14.280000000000001 c-0.04 0 -0.12 0.08 -0.08 0.08 c0.04 0.24 0.4 0.4 0.6 0.24 c0 -0.04 0 -0.04 0.04 -0.08 c-0.04 -0.04 -0.04 -0.04 -0.04 -0.08 c-0.16 -0.16 -0.32 -0.24 -0.52 -0.16 z M20.84 14.68 l0.16 -0.24 c0 -0.12 -0.04 -0.16 -0.16 -0.16 c-0.16 0 -0.24 0.08 -0.2 0.2 c0.04 0.08 0.12 0.12 0.2 0.2 z M3 14.36 l0.04 0.04 c0.04 0 0.04 -0.04 0.08 -0.04 c-0.04 0 -0.04 -0.04 -0.04 -0.04 c-0.04 0 -0.08 0 -0.08 0.04 z M15.92 14.32 c0 0 -0.04 0 -0.04 0.04 c0 0.08 0.04 0.08 0.08 0 c0 0 0 -0.04 -0.04 -0.04 z M6.84 14.920000000000002 c-0.08 0.04 0.04 0.24 0.24 0.32 c0.12 0.08 0.24 0.12 0.36 0.16 c0.08 0.04 0.24 0 0.24 -0.04 c0.08 -0.28 0.4 -0.32 0.56 -0.52 c0 -0.04 0 -0.08 0.04 -0.12 l-0.08 -0.08 c-0.16 0.04 -0.32 0 -0.36 0.08 c-0.2 0.2 -0.4 0.28 -0.68 0.12 c-0.04 -0.04 -0.2 0.04 -0.32 0.08 z M16.68 15.36 c0.04 0.04 0.16 0.04 0.24 0.08 c0.08 -0.04 0.2 -0.08 0.24 -0.16 c0.08 -0.16 -0.04 -0.48 -0.24 -0.56 c-0.12 -0.08 -0.2 0.08 -0.28 0.16 c-0.12 0.12 -0.2 0.12 -0.24 -0.08 c-0.08 -0.16 -0.24 -0.16 -0.4 -0.12 c-0.16 0 -0.2 0.16 -0.2 0.28 c0.04 0.16 0.04 0.28 0.12 0.44 c0.04 0.16 0.2 0.16 0.36 0.04 c0.12 -0.12 0.2 -0.24 0.4 -0.08 z M5 14.760000000000002 c0 0 -0.04 0.04 -0.08 0.04 s-0.08 -0.04 -0.16 -0.04 c0.04 -0.04 0.04 -0.08 0.04 -0.08 z M18.96 14.760000000000002 c0 0 0 0.04 0.04 0.04 l0.04 -0.04 c0 -0.04 -0.04 -0.04 -0.04 -0.08 c0 0.04 -0.04 0.04 -0.04 0.08 z M9.16 14.96 c0.04 -0.04 0.08 -0.08 0.12 -0.08 c0 -0.08 -0.04 -0.12 -0.04 -0.16 c-0.04 0 -0.12 0.04 -0.12 0.08 z M19.88 14.879999999999999 c0 0 0.08 0.04 0.08 0.08 c0.04 -0.04 0.04 -0.12 0.08 -0.16 l-0.12 -0.08 c0 0.04 -0.04 0.08 -0.04 0.16 z M22.24 14.920000000000002 c-0.04 0.04 -0.08 0.08 -0.08 0.16 c0.04 0 0.08 0.04 0.12 0.08 c0 -0.04 0.04 -0.08 0.08 -0.16 z M15.4 15.2 c0.08 0 0.12 -0.04 0.16 -0.04 c-0.04 -0.04 -0.04 -0.12 -0.08 -0.12 s-0.12 0.04 -0.2 0.08 c0.08 0.04 0.08 0.08 0.12 0.08 z M3.56 15.2 l-0.04 0.04 l0 -0.04 l0.04 0 z M3.68 15.32 c-0.12 0.08 -0.12 -0.04 -0.12 -0.12 z M9.04 15.280000000000001 c-0.04 0 -0.08 -0.04 -0.08 -0.04 c-0.12 0 -0.24 0 -0.36 0.04 l-0.04 0.16 c0 0.04 0.08 0.12 0.12 0.12 c0.12 0.08 0.24 0 0.28 -0.12 c0.04 -0.04 0.04 -0.08 0.08 -0.16 z M4.2 15.719999999999999 c0 0 -0.08 0 -0.08 -0.04 c-0.08 -0.08 -0.12 -0.2 -0.16 -0.32 c0 0 0 -0.04 0.04 -0.08 l0.08 0 c0.04 0.12 0.12 0.2 0.2 0.32 z M14.36 15.52 c0.04 0 0.08 -0.04 0.08 -0.08 s0 -0.08 -0.04 -0.16 c-0.04 0.04 -0.08 0.08 -0.08 0.12 s0.04 0.08 0.04 0.12 z M18 15.52 l0.04 0.04 c0.12 0.08 0.24 0 0.28 -0.12 c-0.04 -0.08 -0.08 -0.12 -0.08 -0.16 z M8.12 15.600000000000001 c0 -0.04 -0.04 -0.08 -0.08 -0.16 c0 0.08 -0.08 0.12 -0.08 0.16 s0.04 0.08 0.08 0.12 c0.04 -0.04 0.08 -0.08 0.08 -0.12 z M21.8 15.879999999999999 c0.04 -0.04 0.12 -0.08 0.16 -0.08 c0.08 0.04 0.12 0.16 0.2 0.16 c0.04 0 0.12 -0.08 0.16 -0.12 s0.04 -0.08 0 -0.08 c-0.04 -0.12 -0.12 -0.08 -0.2 -0.04 c-0.04 0.04 -0.08 0.04 -0.16 0.08 l-0.12 -0.24 c-0.12 -0.16 -0.2 -0.12 -0.32 0 c-0.04 0.08 -0.12 0.16 0 0.24 c0.08 0.08 0.16 0.2 0.28 0.08 z M4.92 15.52 c0.16 -0.12 0.12 0.04 0.16 0.08 c-0.04 -0.04 -0.08 -0.04 -0.16 -0.08 z M17 16.08 c0.16 0.2 0.28 0.36 0.56 0.28 c0.04 0 0.12 -0.08 0.16 -0.12 c-0.04 -0.08 -0.04 -0.16 -0.08 -0.2 c-0.12 -0.08 -0.24 -0.16 -0.4 -0.2 c-0.08 -0.04 -0.16 0.04 -0.24 0.08 l0 0.16 z M2.24 16.08 c0.08 0.08 0.16 0.16 0.28 0.24 c0 -0.08 0.04 -0.12 0.08 -0.2 c0 -0.2 -0.08 -0.28 -0.16 -0.24 s-0.12 0.12 -0.2 0.2 z M16.48 16.32 c0.04 0 0.04 0 0.08 -0.04 c-0.04 0 -0.04 -0.04 -0.04 -0.04 c-0.04 0 -0.04 0.04 -0.08 0.04 c0.04 0 0.04 0.04 0.04 0.04 z M10 18.32 c0.32 0.08 0.52 -0.2 0.72 -0.44 c0.08 -0.08 0.12 -0.2 0.12 -0.36 c0.04 -0.2 0.28 -0.16 0.32 -0.28 c0.04 -0.08 0.08 -0.2 0.08 -0.28 c0 -0.2 -0.12 -0.36 -0.2 -0.52 c-0.08 -0.2 -0.2 -0.24 -0.28 -0.04 c-0.2 0.32 -0.36 0.56 -0.8 0.6 c-0.04 0 -0.12 0.2 -0.2 0.28 c-0.16 0.04 -0.32 0.04 -0.48 0.08 c-0.2 0.04 -0.36 0.16 -0.36 0.36 c0 0.32 -0.12 0.56 -0.2 0.84 l0 0.16 c0.04 0.04 0.04 0.08 0.08 0.08 c0 0.04 0.04 0 0.08 0 l0.36 -0.4 c-0.2 -0.28 0.08 -0.4 0.24 -0.56 c0 0 0.08 0 0.12 -0.04 c0.04 0.08 0.04 0.12 0.04 0.2 c-0.04 0.12 -0.16 0.28 0.12 0.28 c0.04 0 0.12 0 0.24 0.04 z M6.76 16.8 c0.04 -0.24 -0.2 -0.44 -0.4 -0.4 c-0.04 0 -0.08 0.04 -0.08 0.04 c-0.08 0.12 -0.04 0.28 0.12 0.4 c0.12 0.12 0.28 0.12 0.36 0.04 l0 -0.08 z M3.04 17.48 c0.04 0 0.08 0 0.08 -0.04 c0.24 -0.24 0.52 -0.32 0.88 -0.32 c0 0 0.04 -0.04 0.04 -0.08 c0.04 0 0 -0.04 0 -0.08 c-0.28 -0.16 -0.52 -0.36 -0.76 -0.56 c-0.04 0 -0.12 0.08 -0.16 0.12 c-0.24 0.2 -0.16 0.52 -0.28 0.76 c0 0.04 0.12 0.16 0.2 0.2 z M18.36 16.92 c0.04 -0.04 0.08 -0.12 0.16 -0.16 l-0.08 -0.12 c-0.08 0.04 -0.16 0.08 -0.2 0.12 s-0.04 0.08 -0.04 0.08 c0.04 0.04 0.12 0.08 0.16 0.08 z M15.6 16.96 c0.04 -0.12 -0.04 -0.2 -0.12 -0.16 c-0.08 0 -0.16 0.04 -0.28 0.12 c0.12 0.08 0.16 0.16 0.24 0.2 s0.16 -0.04 0.16 -0.16 z M7 16.96 c0.04 0.04 0.08 0.12 0.16 0.16 c0.04 0 0.08 -0.04 0.16 -0.08 c0 0 0 -0.04 -0.04 -0.04 c-0.04 -0.08 -0.04 -0.12 -0.08 -0.16 l-0.16 0 s0 0.04 -0.04 0.12 z M9.24 17.04 c0 0 0 -0.04 -0.04 -0.04 l-0.04 0.04 c0 0.08 0.04 0.08 0.08 0 z M4.84 17.68 c0.16 0.08 0.44 -0.16 0.4 -0.36 c0 -0.16 -0.2 -0.24 -0.4 -0.16 c-0.12 0.04 -0.16 0.16 -0.16 0.32 c0.04 0.08 0.08 0.16 0.16 0.2 z M6.16 17.28 c0.04 0.04 0.12 0 0.16 0 l0 -0.08 l-0.16 -0.04 c-0.08 0.04 -0.08 0.12 0 0.12 z M8.44 18.24 c0.04 0 0.12 -0.04 0.16 -0.08 c0.04 -0.12 0.12 -0.24 0.12 -0.32 c0.04 -0.12 0 -0.24 -0.16 -0.28 c-0.08 -0.04 -0.2 0.04 -0.2 0.2 c-0.04 0.04 -0.04 0.12 -0.04 0.16 c0 0.08 0 0.12 0.04 0.2 c0 0.04 0.04 0.12 0.08 0.12 z M7.6 17.6 c0.04 0.08 0.08 0.08 0.12 0 c0 0 -0.04 0 -0.04 -0.04 c-0.04 0 -0.08 0.04 -0.08 0.04 z M6.16 17.76 c0 -0.08 -0.24 -0.2 -0.28 -0.16 c-0.2 0.16 -0.36 0.28 -0.56 0.36 c-0.08 0.04 -0.16 0.16 -0.2 0.2 c-0.08 0.12 0 0.32 0.12 0.32 s0.28 0 0.32 -0.08 c0.12 -0.24 0.4 -0.28 0.56 -0.48 c0.04 -0.04 0 -0.12 0.04 -0.16 z M2.84 18.04 c0.04 0 0.08 -0.08 0.12 -0.12 c-0.04 -0.16 -0.12 -0.32 -0.28 -0.32 c0 0 -0.08 0.08 -0.08 0.12 c0 0.12 0.12 0.28 0.24 0.32 z M23.04 17.64 l-0.08 -0.04 l0.08 0 l0 0.04 z M7.68 18.12 l-0.04 0.08 l0.2 0.24 c0.04 -0.04 0.08 -0.08 0.08 -0.12 c0 -0.12 -0.12 -0.24 -0.24 -0.2 z M16.28 18.2 l0.08 0.04 l-0.04 -0.08 z M11.32 18.32 c-0.04 0.04 -0.08 0.04 -0.08 0.04 c0.04 0.12 0.08 0.12 0.12 0.04 c0 -0.04 -0.04 -0.04 -0.04 -0.08 z M4.68 18.56 c-0.12 -0.08 -0.2 -0.16 -0.28 -0.2 c-0.04 0 -0.08 0.04 -0.08 0.08 c0.04 0.08 0.04 0.16 0.12 0.2 c0 0.04 0.08 0 0.16 0 z M22.8 18.36 c0 0.04 -0.04 0.08 -0.04 0.16 c0 0.04 0.04 0.04 0.08 0.08 c0.04 -0.04 0.08 -0.08 0.08 -0.16 c0 -0.04 -0.08 -0.04 -0.12 -0.08 z M10.36 18.8 c0.12 0.04 0.24 0.04 0.36 0.04 c0 0 0.04 -0.04 0.08 -0.04 c-0.04 -0.04 -0.04 -0.08 -0.04 -0.08 c-0.08 -0.08 -0.2 -0.16 -0.28 -0.2 c-0.12 -0.04 -0.2 0.04 -0.2 0.16 c0 0.04 0.04 0.12 0.08 0.12 z M21.68 18.92 l0.24 -0.12 c0 -0.08 -0.04 -0.08 -0.04 -0.12 c-0.08 -0.08 -0.16 -0.16 -0.24 -0.16 c-0.24 0 -0.44 0.12 -0.6 0.32 c-0.04 0.08 0.04 0.2 0.12 0.2 c0.2 0.08 0.36 -0.04 0.52 -0.12 z M6.08 19.2 c0.24 0.08 0.36 -0.04 0.36 -0.28 c-0.04 -0.16 -0.16 -0.28 -0.32 -0.24 c-0.08 0 -0.2 0.04 -0.24 0.12 c-0.04 0.04 -0.04 0.16 -0.04 0.24 c-0.36 0 -0.6 0.2 -0.84 0.4 c-0.12 0.04 -0.16 0.24 -0.08 0.32 l0.68 0.6 c0.04 0.04 0.16 0 0.16 -0.04 c0.08 -0.24 0.16 -0.48 0.2 -0.72 c0 -0.16 -0.08 -0.36 -0.12 -0.52 z M5.16 18.76 c0 0.04 0.04 0.08 0.04 0.08 c0.08 0 0.12 -0.04 0.16 -0.04 c0 -0.04 -0.04 -0.08 -0.08 -0.12 c-0.04 0.04 -0.08 0.08 -0.12 0.08 z M17.32 19.08 l0.2 -0.12 l-0.24 -0.24 c-0.04 0.08 -0.08 0.12 -0.08 0.16 c0 0.08 0.08 0.12 0.12 0.2 z M7.2 18.88 c-0.08 0.04 -0.16 0.08 -0.2 0.16 c-0.04 0.12 0.08 0.2 0.16 0.2 s0.2 0 0.28 -0.04 c0.04 0 0.08 -0.08 0.08 -0.12 s0 -0.12 -0.04 -0.16 l-0.2 -0.08 c-0.04 0 -0.08 0 -0.08 0.04 z M9.32 18.96 c0 0.04 -0.04 0.12 0 0.2 c0.12 0.2 0.28 0.32 0.56 0.28 c0.04 -0.04 0.12 -0.08 0.16 -0.16 c0 -0.08 -0.08 -0.16 -0.12 -0.2 l-0.44 -0.2 c-0.04 0 -0.12 0.04 -0.16 0.08 z M8.4 19.52 c0.08 -0.12 0.12 -0.2 -0.04 -0.32 c-0.08 -0.08 -0.2 -0.16 -0.32 -0.08 c-0.04 0.04 -0.08 0.16 -0.08 0.24 c-0.04 0.08 0 0.2 0 0.28 c-0.24 -0.16 -0.52 -0.24 -0.8 -0.2 c-0.08 0.04 -0.2 0.12 -0.16 0.2 c0.08 0.2 0.12 0.32 0.04 0.52 c-0.08 0.12 0.08 0.28 0.2 0.24 c0.16 -0.08 0.32 -0.16 0.48 -0.28 c0.2 -0.12 0.24 -0.28 0.24 -0.48 c0.16 0 0.32 0 0.44 -0.12 z M21.88 19.2 l0.04 -0.04 l-0.04 -0.04 s-0.04 0 -0.04 0.04 c0 0 0 0.04 0.04 0.04 z M20.36 19.32 c-0.04 0.04 -0.08 0.08 -0.08 0.12 s0.04 0.08 0.08 0.12 c0 -0.04 0.04 -0.08 0.04 -0.16 c0 0 0 -0.04 -0.04 -0.08 z M6.08 19.92 c0 0.04 0.04 0.04 0.04 0.04 c0.04 0.04 0.04 0 0.08 -0.04 c-0.04 0 -0.04 -0.04 -0.08 -0.04 z M6.72 19.96 c0 0 0.04 0 0.04 -0.04 l-0.04 -0.04 c-0.08 0 -0.08 0.04 0 0.08 z M20.2 20.04 c-0.04 0 -0.04 0.08 -0.08 0.08 c0.04 0.04 0.08 0.08 0.12 0.08 s0.08 -0.08 0.12 -0.08 c-0.04 -0.04 -0.08 -0.08 -0.16 -0.08 z M22.04 20.12 c0.04 0.04 0.08 0.08 0.16 0.08 c0.04 0 0.04 -0.08 0.08 -0.12 c-0.04 0 -0.08 -0.04 -0.16 -0.04 c-0.04 0 -0.04 0.08 -0.08 0.08 z M19.08 20.2 c-0.04 -0.04 0 -0.2 -0.12 -0.08 l0.12 0.08 c0.04 0.08 0.04 0.2 0.04 0.28 c0 0.04 0.04 0.08 0.08 0.04 c0 0 0.04 0 0.04 -0.04 c0.04 -0.16 0 -0.24 -0.16 -0.28 z M4.24 20.28 l-0.16 -0.04 c-0.04 0 -0.08 0.04 -0.08 0.08 c0.04 0.04 0.08 0.08 0.12 0.08 s0.08 -0.08 0.12 -0.12 z M21.76 20.84 l0 -0.08 c-0.08 -0.2 -0.32 -0.2 -0.48 -0.32 c0 0 -0.12 0.12 -0.16 0.2 c-0.04 0 0 0.12 0.04 0.12 c0.16 0.08 0.36 0.08 0.56 0.16 c0 -0.04 0.04 -0.04 0.04 -0.08 z M8 21.44 c0.04 0.08 0.08 0.08 0.12 0.04 c0 -0.04 -0.04 -0.04 -0.08 -0.08 c0 0.04 -0.04 0.04 -0.04 0.04 z M7 22.28 c0.08 0 0.12 -0.08 0.24 -0.16 c-0.12 -0.08 -0.2 -0.16 -0.28 -0.16 s-0.16 0.04 -0.12 0.16 c0 0.12 0.04 0.2 0.16 0.16 z M21.24 22.4 c0.04 0.08 0.08 0.08 0.12 0 c0 0 -0.04 0 -0.04 -0.04 c-0.04 0.04 -0.08 0.04 -0.08 0.04 z M18.8 22.76 c-0.08 0 -0.08 0.04 0 0.08 c0 0 0.04 0 0.04 -0.04 c0 0 0 -0.04 -0.04 -0.04 z M13.36 23.24 c-0.08 0.16 -0.04 0.32 0.08 0.44 c0.04 0.04 0.12 0.08 0.2 0.12 l0.08 -0.2 c0 -0.12 0 -0.24 -0.04 -0.36 c0 -0.04 -0.12 -0.08 -0.2 -0.12 c-0.04 0 -0.12 0.08 -0.12 0.12 z M6.76 24.32 l-0.08 0 l0.04 0.08 z M22.32 24.52 l-0.04 -0.04 c-0.04 0 -0.08 0.04 -0.08 0.04 c0.04 0.08 0.08 0.08 0.12 0 z M18.76 25.68 l0.12 0.08 c0.12 -0.08 0.24 -0.12 0.4 -0.2 c-0.08 -0.08 -0.12 -0.16 -0.16 -0.16 c-0.2 0 -0.28 0.12 -0.36 0.28 z M3.88 25.6 c0.04 -0.04 -0.04 -0.12 -0.04 -0.16 c-0.04 0.04 -0.08 0.08 -0.08 0.16 c0 0.04 0.04 0.08 0.08 0.12 c0 -0.04 0.04 -0.08 0.04 -0.12 z M21.04 26.439999999999998 c0.04 0.04 0.04 0.08 0.08 0.08 l0.04 -0.04 c0 -0.04 -0.04 -0.04 -0.04 -0.08 c-0.04 0 -0.04 0.04 -0.08 0.04 z M20.28 26.759999999999998 c-0.04 0 -0.16 0.08 -0.24 0.12 c0.08 0.2 0.12 0.36 0.24 0.52 c0.04 0.04 0.16 0.08 0.24 0.08 c0.04 -0.04 0.12 -0.16 0.12 -0.24 c0 -0.24 -0.12 -0.4 -0.36 -0.48 z M18.4 27.439999999999998 c0.04 0 0.04 -0.04 0.04 -0.04 l-0.4 -0.24 c-0.04 0.08 -0.08 0.12 -0.08 0.16 c0.04 0.2 0.32 0.28 0.44 0.12 z M21.24 27.28 l0.08 -0.08 c-0.04 0 -0.08 -0.04 -0.16 -0.04 l-0.08 0.08 z M22.28 27.16 c-0.04 0 -0.08 0.04 -0.08 0.04 c0.04 0.12 0.08 0.12 0.12 0.04 c0 -0.04 -0.04 -0.04 -0.04 -0.08 z M6.24 27.52 c-0.08 0.04 -0.12 0.08 -0.16 0.08 c0.08 0.08 0.16 0.16 0.24 0.28 c0.04 -0.12 0.08 -0.16 0.08 -0.2 c0 -0.12 -0.08 -0.16 -0.16 -0.16 z M16.12 27.64 c0 0 0.04 0 0.04 -0.04 l-0.04 -0.04 l-0.04 0.04 c0 0.04 0 0.04 0.04 0.04 z M10 28.96 c0.04 -0.04 0.08 -0.12 0.04 -0.16 c-0.04 -0.16 -0.12 -0.28 -0.2 -0.4 c0 -0.04 -0.04 -0.04 -0.04 -0.08 c-0.04 0 -0.08 0.04 -0.08 0.04 l-0.32 0.32 c-0.04 0.04 0 0.12 0.04 0.16 c0.12 0.08 0.28 0.12 0.4 0.16 c0.04 0.04 0.12 0 0.16 -0.04 z M5.44 28.68 c-0.04 -0.12 -0.12 -0.2 -0.16 -0.32 c-0.08 -0.04 -0.2 0 -0.2 0.08 l0 0.2 c0 0.12 0.04 0.16 0.24 0.08 c0.04 0 0.08 -0.04 0.12 -0.04 z M3.96 28.759999999999998 c0.12 0.24 0.36 0.36 0.84 0.28 l-0.12 0 c0.04 0 0.08 -0.04 0.16 -0.08 c-0.04 -0.04 -0.04 -0.12 -0.12 -0.16 c-0.16 -0.12 -0.36 -0.24 -0.52 -0.32 c-0.08 0 -0.2 0.04 -0.24 0.08 s-0.04 0.16 0 0.2 z M18.2 28.6 l0.08 0 l-0.04 -0.08 z M5.6 28.759999999999998 c-0.04 -0.04 -0.08 -0.08 -0.12 -0.08 c0 0.08 0 0.2 0.12 0.08 z M10.8 28.759999999999998 c-0.04 0 -0.04 -0.04 -0.04 -0.04 c-0.04 0 -0.08 0 -0.08 0.04 l0.04 0.04 c0.04 0 0.04 0 0.08 -0.04 z M11.36 28.96 c0 -0.04 0 -0.04 -0.04 -0.08 c-0.08 0.04 -0.08 0.08 0 0.12 z M14.8 28.880000000000003 c-0.12 0.04 -0.12 0.08 -0.04 0.12 c0.04 0 0.04 -0.04 0.08 -0.04 c-0.04 -0.04 -0.04 -0.08 -0.04 -0.08 z M5.8 29.119999999999997 c0 0 -0.04 0 -0.04 -0.04 c-0.04 0 -0.08 0.04 -0.08 0.04 c0.04 0.08 0.08 0.08 0.12 0 z M17.72 29.6 c0.16 0 0.36 -0.12 0.36 -0.28 c-0.04 -0.04 -0.08 -0.12 -0.16 -0.2 l-0.16 0 c-0.08 0.12 -0.16 0.2 -0.2 0.32 c-0.04 0.08 0.08 0.16 0.16 0.16 z M4.84 29.32 l-0.04 -0.04 c-0.08 0.04 -0.08 0.08 0 0.12 c0 0 0.04 -0.04 0.04 -0.08 z M10.28 29.439999999999998 c0.08 -0.04 0.16 -0.04 0.08 -0.16 c-0.04 0.04 -0.08 0.12 -0.08 0.16 z M20.8 29.84 c0.04 -0.08 0 -0.2 0 -0.28 c0 -0.04 -0.04 -0.04 -0.04 -0.08 c-0.2 0.08 -0.4 0.12 -0.6 0.2 c-0.04 0 -0.04 0.04 -0.04 0.04 c0 0.04 0.04 0.04 0.04 0.08 c0.16 0.04 0.32 0.04 0.44 0.12 c0.12 0.04 0.2 0 0.2 -0.08 z M3.68 29.72 c-0.04 -0.04 -0.08 -0.08 -0.12 -0.08 c-0.08 0 -0.12 0.04 -0.16 0.08 c0.04 0 0.08 0.08 0.12 0.08 c0.08 0 0.12 -0.04 0.16 -0.08 z M18.28 29.84 c0.04 -0.04 0 -0.12 -0.04 -0.16 c-0.04 0.04 -0.08 0.08 -0.08 0.12 s0.04 0.08 0.04 0.12 c0.04 0 0.08 -0.04 0.08 -0.08 z M19.04 30.119999999999997 c0 -0.04 -0.04 -0.08 -0.04 -0.08 c-0.08 0.04 -0.08 0.08 0 0.12 z M12.08 30.240000000000002 l-0.04 0.04 c0 0.04 0 0.08 0.04 0.08 l0.08 -0.08 c-0.04 0 -0.04 -0.04 -0.08 -0.04 z M7.32 30.48 c-0.04 -0.04 -0.08 -0.04 -0.16 -0.12 c-0.04 0.08 -0.12 0.12 -0.12 0.2 c-0.04 0.04 0 0.08 0.04 0.16 z M12.52 30.560000000000002 l0.16 -0.04 c-0.04 -0.04 -0.04 -0.12 -0.08 -0.12 s-0.12 0.04 -0.16 0.08 c0.04 0 0.04 0.08 0.08 0.08 z M19.12 30.96 c0.12 -0.08 0.32 -0.4 0.28 -0.52 c0 0 -0.04 -0.04 -0.08 -0.04 c-0.24 0.04 -0.4 0.2 -0.4 0.4 c0 0.08 0.08 0.12 0.08 0.16 l0.12 0 z M4.4 30.560000000000002 l0.08 -0.08 c-0.04 0 -0.04 -0.04 -0.08 -0.04 l-0.04 0.04 c0 0.04 0 0.08 0.04 0.08 z M9.92 30.48 c0.16 -0.08 0.12 0.04 0.16 0.12 z M20.52 30.68 l0.08 -0.08 c-0.04 -0.04 -0.04 -0.08 -0.08 -0.16 c0 0.04 -0.08 0.08 -0.08 0.08 c0.04 0.08 0.04 0.12 0.08 0.16 z M21.68 30.52 c0 0 0.04 0 0.04 -0.04 c0 0 0 -0.04 -0.04 -0.04 l-0.04 0.04 c0 0.04 0.04 0.04 0.04 0.04 z M13.72 30.880000000000003 c0.04 -0.08 0.08 -0.16 0.12 -0.2 c-0.04 -0.04 -0.04 -0.08 -0.08 -0.08 c-0.08 0.04 -0.16 0.04 -0.2 0.12 c-0.04 0 0 0.12 0 0.16 l0.16 0 z M12 30.8 c-0.04 0 -0.12 0.04 -0.16 0.08 c0.04 0 0.08 0.08 0.16 0.08 c0.04 0 0.08 -0.04 0.12 -0.08 c-0.04 -0.04 -0.08 -0.08 -0.12 -0.08 z M22.08 30.92 l0.04 -0.04 c0 -0.04 -0.04 -0.04 -0.04 -0.08 l-0.08 0.08 s0.04 0.04 0.08 0.04 z M14.88 31.16 c0 0.08 0 0.2 0.12 0.08 l-0.12 -0.08 c-0.08 -0.28 -0.28 -0.2 -0.48 -0.16 l-0.04 0.04 c0 0.04 0.04 0.08 0.04 0.08 c0.16 0 0.32 0.04 0.48 0.04 z M5.68 32.12 c0.12 -0.28 0.32 -0.52 0.64 -0.64 c0.04 0 0.04 -0.04 0.04 -0.04 c0 -0.04 0 -0.08 -0.04 -0.08 c-0.2 -0.2 -0.4 -0.28 -0.68 -0.12 c-0.12 0.08 -0.44 -0.08 -0.4 0.28 c0 0.12 -0.12 0.2 -0.16 0.32 s0.16 0.44 0.32 0.44 c0.12 0.04 0.2 -0.04 0.28 -0.16 z M7.4 32.08 c0.04 -0.4 -0.16 -0.68 -0.48 -0.88 c-0.08 -0.08 -0.28 0 -0.28 0.12 c-0.04 0.28 -0.04 0.56 -0.2 0.8 l-0.04 0 l-0.16 0 c-0.04 0.04 -0.12 0.08 -0.16 0.08 c0.04 0.04 0.04 0.08 0.08 0.08 s0.12 0 0.16 -0.04 c0.04 0 0.08 -0.08 0.08 -0.12 c0.28 0 0.52 0.04 0.76 0.16 c0.08 0.04 0.2 -0.08 0.24 -0.2 z M22.72 31.72 c0.04 -0.28 -0.08 -0.4 -0.32 -0.36 c-0.08 0 -0.16 0.04 -0.16 0.08 c-0.04 0.08 -0.04 0.16 0 0.24 c0 0.04 0.08 0.12 0.12 0.12 c0.08 0.04 0.16 0.12 0.24 0.08 s0.12 -0.12 0.12 -0.16 z M14.76 31.880000000000003 c0 0 0.08 -0.04 0.04 -0.04 c-0.08 -0.2 -0.24 -0.4 -0.48 -0.48 l-0.08 0 c-0.12 0.04 -0.12 0.08 -0.04 0.16 l0.36 0.36 c0.04 0.04 0.12 0 0.2 0 z M3.08 31.48 l0 -0.08 l-0.04 0.04 z M18.96 31.439999999999998 c0 0.08 0.04 0.08 0.08 0 l-0.04 -0.04 z M11.12 32.12 c0.04 -0.08 0.08 -0.16 0.08 -0.2 l-0.2 -0.32 c-0.24 0.04 -0.4 0.08 -0.6 0.16 c-0.04 0 -0.08 0.08 -0.08 0.12 c0.04 0.04 0.08 0.12 0.08 0.16 c0.04 0.24 0.04 0.56 0.36 0.56 c0.24 0 0.28 -0.32 0.36 -0.48 z M12.16 32.12 l0.16 -0.08 c0 -0.08 -0.04 -0.16 -0.08 -0.16 c-0.16 -0.12 -0.36 -0.2 -0.52 -0.28 c-0.04 0 -0.16 0.08 -0.2 0.16 c-0.12 0.08 0 0.16 0.04 0.2 c0.16 0.2 0.32 0.2 0.52 0.16 l0.08 0 z M4.12 31.92 c0.04 -0.04 0.08 -0.08 0.12 -0.08 c-0.04 -0.04 -0.08 -0.08 -0.12 -0.08 s-0.08 0.04 -0.16 0.08 c0.08 0 0.12 0.04 0.16 0.08 z M4.12 32.56 l0 -0.12 c0 -0.28 -0.4 -0.56 -0.68 -0.48 c-0.04 0 -0.08 0.04 -0.08 0.08 c0.08 0.24 0.16 0.52 0.28 0.76 c0.04 0.12 0.36 0.12 0.4 0 c0.04 -0.08 0.08 -0.16 0.08 -0.24 z M13.28 32.68 c0.12 0.04 0.24 -0.08 0.24 -0.24 s-0.08 -0.28 -0.2 -0.4 c0 -0.04 -0.04 -0.04 -0.08 -0.04 c-0.04 0.04 -0.08 0.08 -0.08 0.12 c-0.04 0.04 -0.04 0.12 -0.04 0.16 l0 0.2 c0.04 0.08 0.12 0.16 0.16 0.2 z M2.84 32.68 c0.04 0 0.08 -0.08 0.04 -0.12 c-0.04 -0.12 -0.12 -0.2 -0.24 -0.2 l-0.04 0.16 c0 0.12 0.12 0.2 0.24 0.16 z M5 33 c0.16 -0.16 0.04 -0.56 -0.2 -0.64 l-0.12 0.12 c-0.04 0.2 0.04 0.36 0.2 0.48 c0.04 0.04 0.12 0.04 0.12 0.04 z M11.32 33.4 c0 -0.04 0.08 -0.08 0.08 -0.12 s-0.04 -0.12 -0.08 -0.16 c-0.04 0.04 -0.08 0.08 -0.08 0.16 c0 0.04 0.04 0.08 0.08 0.12 z M22.8 33.36 c0 0.08 0.04 0.08 0.08 0 l-0.04 -0.04 z M14.56 34 c0.04 -0.04 0.04 -0.04 0.08 -0.04 c-0.04 -0.04 -0.04 -0.08 -0.04 -0.08 c-0.04 0 -0.04 0.04 -0.08 0.04 c0.04 0.04 0.04 0.04 0.04 0.08 z M11.88 36.08 c0.04 -0.04 0.08 -0.08 0.08 -0.12 s-0.04 -0.08 -0.08 -0.12 c0 0.04 -0.08 0.08 -0.08 0.12 s0.04 0.08 0.08 0.12 z M13.24 36.12 l0.04 -0.08 l-0.08 0 z M3.96 36.8 c0.04 0.08 0.08 0.08 0.12 0.04 c0 -0.04 -0.04 -0.04 -0.04 -0.08 c-0.04 0.04 -0.08 0.04 -0.08 0.04 z M6.32 37.24 c0 0 0.04 0 0.04 -0.04 c0 0 0 -0.04 -0.04 -0.04 l-0.04 0.04 z M4.96 38.6 c0.04 0 0.04 -0.04 0.08 -0.04 c-0.04 -0.04 -0.04 -0.04 -0.04 -0.08 l-0.08 0.08 c0.04 0 0.04 0.04 0.04 0.04 z M13.68 39 c0.08 0 0.12 -0.04 0.16 -0.04 c-0.04 -0.04 -0.04 -0.12 -0.08 -0.12 s-0.12 0.04 -0.16 0.08 z M7.12 39.56 l0 -0.08 l-0.08 0.04 z M43.6 24.96 c0.24 0.52 0.24 1.04 0.04 1.56 c-0.04 0.08 -0.04 0.16 0 0.2 c0.24 0.4 0.08 0.88 0.12 1.32 c0 0.16 0 0.36 -0.08 0.56 c-0.08 0.16 -0.08 0.36 -0.08 0.56 c-0.04 0.36 0 0.72 -0.16 1.12 c-0.08 0.12 -0.04 0.28 -0.04 0.44 l0 1.64 c0 0.36 0.04 0.76 -0.16 1.12 c-0.08 0.16 0 0.44 -0.04 0.68 s-0.12 0.48 -0.16 0.72 c-0.04 0.2 0.04 0.44 -0.04 0.68 c-0.2 0.6 -0.2 1.32 -0.8 1.76 c-0.2 0.44 -0.56 0.76 -0.88 1.08 c-0.64 0.68 -1.44 1.12 -2.32 1.28 c-0.36 0.04 -0.64 0.28 -0.96 0.36 c-0.36 0.04 -0.72 -0.04 -1.04 0.08 c-0.44 0.16 -0.8 0.2 -1.2 0 c-0.08 -0.04 -0.2 -0.08 -0.28 -0.04 c-0.32 0.2 -0.64 0.12 -1 0 c-0.28 -0.08 -0.6 -0.04 -0.92 -0.2 c-0.2 -0.08 -0.48 -0.2 -0.72 -0.2 c-0.64 0 -1.2 -0.32 -1.8 -0.52 c-1.08 -0.36 -1.8 -1.16 -2.52 -1.96 c-0.16 -0.2 -0.2 -0.44 -0.32 -0.68 c-0.04 -0.12 0.08 -0.24 0.2 -0.16 c0.24 0.16 0.48 0 0.68 -0.04 c0.2 -0.08 0.32 -0.2 0.24 -0.32 c0 -0.04 -0.08 -0.08 -0.12 -0.08 c-0.12 0.08 -0.28 0.16 -0.44 0.04 c-0.16 -0.16 -0.36 -0.16 -0.52 -0.12 c-0.16 0 -0.2 -0.08 -0.2 -0.16 c-0.08 -0.56 -0.32 -1.12 -0.24 -1.68 l0 -0.12 c-0.28 -0.76 -0.12 -1.56 -0.16 -2.36 c-0.04 -0.24 0 -0.52 -0.16 -0.72 c-0.04 -0.08 0 -0.2 0.04 -0.28 c0.16 -0.32 0.08 -0.64 0.12 -0.96 s-0.08 -0.68 0.08 -1.04 l0 -0.16 c-0.04 -0.36 -0.12 -0.72 -0.16 -1.12 c0 -0.08 -0.12 -0.2 -0.08 -0.24 c0.32 -0.44 -0.08 -0.88 -0.04 -1.28 c0.04 -0.44 0 -0.92 0 -1.36 c0 -0.4 -0.04 -0.8 0.16 -1.2 c0.08 -0.16 0 -0.36 0 -0.56 l0.48 0.12 c0.08 0.04 0.2 0.04 0.24 0 c0.24 -0.24 0.56 -0.32 0.88 -0.32 c0.04 0 0.12 -0.08 0.12 -0.12 c0 -0.08 0 -0.2 -0.08 -0.28 s-0.2 -0.2 -0.4 -0.12 c-0.16 0.08 -0.4 0.08 -0.52 0.16 c-0.28 0.2 -0.44 0 -0.6 -0.08 c-0.24 -0.04 -0.28 -0.24 -0.24 -0.44 c0.08 -0.16 0.12 -0.32 0.16 -0.48 c0.04 -0.32 -0.08 -0.68 0.12 -1 c0.12 -0.32 0 -0.72 0.2 -1.04 c0.08 -0.12 0.04 -0.32 0.04 -0.48 l0 -2.48 c-0.04 -0.64 0.12 -1.24 0.28 -1.88 c0.2 -0.24 0.04 -0.6 0.28 -0.88 c0.2 -0.2 0.28 -0.48 0.44 -0.72 c0.04 -0.08 0.08 -0.16 0.16 -0.24 c0.44 -0.32 0.8 -0.72 1.32 -0.92 c0.36 -0.16 0.68 -0.32 1 -0.52 c0.44 -0.28 0.92 -0.44 1.44 -0.4 c0.4 0.04 0.84 0.08 1.2 -0.16 c0.56 0.04 1.08 -0.08 1.64 0.12 c0.12 0.04 0.28 0.08 0.44 0.08 c0.28 0 0.6 0.04 0.88 0 c0.56 -0.08 1.12 0.24 1.68 0.2 c0.12 0 0.28 0.12 0.44 0.2 s0.32 0.16 0.52 0.16 c0.76 0 1.32 0.4 1.88 0.8 c0.36 0.28 0.52 0.72 0.88 1 c0.12 0.28 0.28 0.52 0.44 0.8 c0.2 0.36 0.28 0.8 0.4 1.16 c0.04 0.04 0.04 0.08 0.04 0.12 c0.04 0.32 -0.08 0.68 0.12 1 c-0.16 0.32 0.16 0.6 0.08 0.92 c-0.04 0.12 -0.04 0.28 0 0.4 c0.24 1.08 0.24 1.08 0.04 2.32 c0.16 0.24 -0.08 0.44 -0.04 0.68 l0 1.16 c-0.36 0 -0.68 -0.08 -1.04 -0.16 c-0.32 -0.08 -0.68 -0.08 -1.04 -0.08 c0 0 -0.04 -0.04 -0.08 -0.04 c-0.16 -0.08 -0.24 0.04 -0.28 0.16 c-0.16 0.24 0 0.64 0.28 0.68 c0.24 0.04 0.52 0.08 0.76 0 c0.4 -0.2 0.8 -0.12 1.2 -0.2 c0.24 -0.04 0.2 -0.2 0.2 -0.36 c0.04 0.04 0.12 0.08 0.12 0.12 c0.08 0.2 0.08 0.44 -0.04 0.64 c-0.04 0.08 -0.08 0.2 -0.08 0.24 c0.28 0.52 0.12 1.04 0.16 1.52 c0.04 0.24 0 0.44 -0.12 0.64 c-0.04 0.12 -0.08 0.28 -0.04 0.36 z M30.08 13.04 c-0.04 0 -0.08 0.04 -0.08 0.04 c0.04 0.08 0.08 0.08 0.12 0 z M38.32 21.84 l0.48 0 c0.32 -0.04 0.56 0.04 0.76 0.28 c0.08 0.08 0.12 0.04 0.16 -0.04 c0.08 -0.16 -0.2 -0.32 -0.04 -0.52 c0.04 0 0 -0.08 -0.04 -0.12 c-0.16 -0.16 -0.32 -0.28 -0.52 -0.16 s-0.4 0.16 -0.6 0 c-0.12 -0.08 -0.24 0 -0.32 0.16 c0 0 0 0.04 -0.04 0.08 c-0.04 0.08 -0.08 0.08 -0.08 -0.04 c-0.04 -0.04 -0.04 -0.12 -0.04 -0.16 l0 -1.84 c0 -0.52 -0.04 -1.08 0 -1.6 c0 -0.48 -0.16 -0.88 -0.32 -1.28 c-0.32 -0.72 -0.92 -1.04 -1.64 -1.08 c-0.36 -0.04 -0.72 -0.04 -1.08 -0.04 c-0.24 0 -0.44 0.08 -0.56 0.24 c-0.08 0.12 -0.2 0.2 -0.28 0.28 c-0.2 0.2 -0.4 0.4 -0.4 0.72 c0 0.2 -0.08 0.36 -0.16 0.56 c-0.04 0.2 -0.04 0.4 -0.12 0.56 c-0.12 0.2 0.12 0.32 0.04 0.52 c-0.16 0.48 -0.16 0.96 0.04 1.48 c0.12 0.32 0.08 0.68 -0.04 1.04 c-0.08 0.2 -0.12 0.4 -0.24 0.6 c-0.08 0.16 -0.08 0.32 0 0.48 c0.04 0.12 0.08 0.2 0.12 0.36 c0 0.24 -0.04 0.52 0.04 0.76 c0.08 0.28 0 0.52 0 0.8 c-0.04 0.68 -0.04 1.4 -0.04 2.12 c0 0.36 0.04 0.76 -0.04 1.12 c-0.04 0.36 -0.24 0.68 0 1 c0.04 0.04 0 0.12 0 0.2 c-0.04 0.08 -0.12 0.16 -0.12 0.24 c0 0.4 -0.04 0.8 0.08 1.24 c0.12 0.32 0 0.76 0.12 1.12 c0.12 0.44 -0.04 0.8 -0.08 1.2 c-0.32 0.44 -0.12 0.88 0.08 1.36 c0.28 0.8 1 1.44 1.84 1.6 c0.2 0.04 0.4 0.12 0.6 0.16 c0.32 0 0.52 -0.4 0.88 -0.24 c0 0.04 0.08 0 0.08 -0.04 c0.04 -0.2 0.24 -0.24 0.44 -0.28 c0.24 -0.08 0.36 -0.24 0.36 -0.48 c0 -0.52 0.2 -1 0.32 -1.48 c0.08 -0.24 0.08 -0.44 0 -0.64 c-0.2 -0.48 -0.12 -0.96 -0.04 -1.4 l0.24 -1.28 c-0.2 -0.36 -0.12 -0.72 -0.12 -1.04 c-0.04 -1.4 -0.04 -2.76 -0.04 -4.12 c0 -0.72 0.04 -1.4 0.04 -2.12 c0 -0.2 0.08 -0.28 0.28 -0.28 z M29.240000000000002 21.16 c0.04 0 0.08 0.04 0.16 0.12 c0.04 -0.08 0.12 -0.12 0.16 -0.2 c0 -0.04 -0.04 -0.08 -0.04 -0.16 c-0.12 0.08 -0.2 0.16 -0.28 0.24 z M40.24 21.12 c-0.04 0 -0.04 0 -0.08 0.04 c0 0 0.04 0.04 0.08 0.04 l0.04 -0.04 z M29.080000000000002 21.6 c0.04 0 0.04 -0.04 0.08 -0.04 c-0.04 -0.04 -0.04 -0.08 -0.04 -0.08 c-0.08 0.04 -0.12 0.08 -0.04 0.12 z M40.44 21.8 c0.12 0.04 0.24 0 0.24 -0.16 c0 -0.04 -0.04 -0.08 -0.04 -0.16 l-0.28 0.24 c0.04 0.04 0.04 0.08 0.08 0.08 z M31.72 22.04 l-0.16 0.04 c0.04 0.04 0.04 0.12 0.08 0.12 c0.08 0 0.12 -0.04 0.16 -0.04 c0 -0.04 -0.04 -0.12 -0.08 -0.12 z M40.8 22.08 c0 0 -0.04 0 -0.04 0.04 l0.04 0.04 l0.04 -0.04 s0 -0.04 -0.04 -0.04 z M27.52 22.52 c0 -0.04 0.04 -0.04 0.04 -0.08 c0.04 0.08 0.08 0.12 0.08 0.16 c-0.04 -0.04 -0.08 -0.08 -0.12 -0.08 z M42.480000000000004 22.6 c0 0.12 0.04 0.2 0.16 0.16 l0.24 -0.16 c-0.12 -0.08 -0.2 -0.16 -0.28 -0.16 s-0.16 0.04 -0.12 0.16 z M40.84 22.96 l0.44 0 l0 -0.08 c-0.04 -0.24 -0.2 -0.36 -0.44 -0.28 c-0.04 0.04 -0.08 0.16 -0.08 0.24 c-0.04 0.04 0.04 0.12 0.08 0.12 z M41.56 23.32 c0.16 -0.04 0.28 -0.16 0.4 -0.24 c0.04 0 0 -0.08 -0.04 -0.12 c-0.2 -0.2 -0.2 -0.2 -0.48 -0.04 c-0.04 0 -0.12 0.04 -0.16 0.08 l0.08 0.12 c0.08 0.08 0.16 0.2 0.2 0.2 z M28.92 22.84 c-0.04 0 -0.04 0.04 -0.08 0.04 c0 0 0.04 0.04 0.08 0.04 l0.04 -0.04 c-0.04 0 -0.04 -0.04 -0.04 -0.04 z M40.8 23.32 c0 0 0.04 -0.04 0.08 -0.04 c-0.04 -0.04 -0.04 -0.08 -0.08 -0.08 c-0.08 0.04 -0.08 0.08 0 0.12 z M42.08 24.32 c0.04 -0.04 0.12 -0.08 0.16 -0.16 c0 -0.04 -0.04 -0.12 -0.08 -0.16 c-0.08 0.08 -0.16 0.16 -0.24 0.2 c0.04 0.04 0.08 0.08 0.16 0.12 z M42.92 24.28 l0.04 -0.08 l-0.08 0.04 z M39.88 24.64 c0 -0.12 -0.12 -0.2 -0.16 -0.28 c-0.2 0 -0.36 0.28 -0.32 0.4 c0 0.08 0.08 0.12 0.16 0.12 c0.12 0 0.32 -0.12 0.32 -0.24 z M43.120000000000005 24.84 c0 0 0.04 0 0.04 -0.04 l-0.04 -0.04 c-0.08 0 -0.08 0.04 0 0.08 z M28.84 25.08 c-0.04 0.04 0 0.08 0.04 0.12 c0.04 0 0.08 -0.04 0.12 -0.08 c0 -0.04 -0.04 -0.12 -0.08 -0.16 c-0.04 0.04 -0.08 0.08 -0.08 0.12 z M42.519999999999996 25.2 c0.04 0 0.08 -0.04 0.08 -0.08 l-0.04 -0.16 c-0.04 0.04 -0.08 0.08 -0.08 0.12 c-0.04 0.04 0 0.08 0.04 0.12 z M32.08 25.32 c-0.04 0 -0.08 0.04 -0.16 0.04 c0.04 0.04 0.12 0.08 0.16 0.08 s0.08 -0.04 0.12 -0.04 c-0.04 -0.04 -0.08 -0.08 -0.12 -0.08 z M28.44 25.64 c-0.04 0.12 0.04 0.16 0.16 0.2 c0.12 0 0.2 -0.04 0.16 -0.16 c0 -0.04 -0.04 -0.12 -0.12 -0.24 z M29.72 26.08 c0.12 -0.08 0.16 -0.12 0.2 -0.2 c0.04 -0.12 -0.04 -0.16 -0.16 -0.2 c-0.12 0 -0.16 0.08 -0.16 0.16 s0.08 0.16 0.12 0.24 z M29.080000000000002 25.72 c0 0.04 -0.04 0.12 -0.04 0.12 c0 0.08 0.08 0.16 0.12 0.2 c0.08 -0.04 0.12 -0.04 0.16 -0.08 z M41.879999999999995 26.04 c0 0.04 0.04 0.08 0.04 0.12 c0.04 0 0.12 -0.04 0.12 -0.08 s-0.04 -0.12 -0.08 -0.16 c0 0.04 -0.08 0.08 -0.08 0.12 z M32 26.119999999999997 c-0.08 -0.04 -0.12 -0.08 -0.16 -0.08 c-0.08 0 -0.12 0 -0.2 0.04 c-0.04 0 -0.04 0.04 -0.04 0.12 c-0.04 0 0.04 0.04 0.04 0.04 l0.24 0 c0 -0.04 0.08 -0.08 0.12 -0.12 z M42.72 26.2 c0 0 0.04 -0.04 0.08 -0.04 c-0.04 -0.04 -0.04 -0.08 -0.08 -0.08 c-0.08 0.04 -0.08 0.08 0 0.12 z M31 26.2 c0.04 0 0.04 -0.04 0.08 -0.04 l-0.04 -0.04 c-0.04 0 -0.04 0 -0.08 0.04 c0.04 0 0.04 0.04 0.04 0.04 z M38.88 26.4 c0 0.04 0.04 0.08 0.12 0.12 c0.04 0.04 0.08 0 0.12 0 s0.04 -0.04 0.04 -0.08 c0 -0.12 -0.12 -0.2 -0.24 -0.16 c-0.04 0 -0.04 0.08 -0.04 0.12 z M29.52 26.32 l-0.16 -0.04 c-0.04 0 -0.08 0.04 -0.08 0.08 c0.04 0 0.08 0.04 0.12 0.04 s0.08 -0.04 0.12 -0.08 z M42.04 26.6 c0.04 0 0.12 -0.04 0.16 -0.08 c-0.04 0 -0.08 -0.08 -0.16 -0.08 c-0.04 0 -0.08 0.08 -0.12 0.08 c0.04 0.04 0.08 0.08 0.12 0.08 z M30.28 26.48 c-0.08 0 -0.12 0.08 0 0.12 l0.16 -0.04 l0 -0.08 c-0.04 0 -0.12 -0.04 -0.16 0 z M32.56 26.48 c-0.04 0 -0.08 0.04 -0.08 0.04 c0.04 0.08 0.08 0.08 0.12 0 z M29.36 27.16 c0.12 0.08 0.2 -0.04 0.2 -0.12 c-0.04 -0.12 -0.12 -0.24 -0.2 -0.4 c-0.12 0.08 -0.2 0.12 -0.24 0.2 c-0.04 0 -0.08 0.12 -0.04 0.12 c0.08 0.08 0.2 0.16 0.28 0.2 z M43.120000000000005 26.759999999999998 l0 -0.08 l-0.04 0.04 z M39.36 27.439999999999998 c-0.04 -0.08 -0.04 -0.12 -0.08 -0.16 c-0.04 0 -0.08 0.04 -0.08 0.08 s0.04 0.08 0.04 0.16 c0.04 -0.04 0.08 -0.08 0.12 -0.08 z M29.52 27.52 l-0.12 -0.12 c-0.04 0 -0.08 0.04 -0.16 0.08 c0.04 0.04 0.08 0.08 0.12 0.08 s0.08 -0.04 0.16 -0.04 z M32.88 28 c-0.16 0 -0.36 0.16 -0.36 0.24 s0.08 0.16 0.08 0.16 c0.12 0.12 0.16 0.12 0.2 0.04 c0.04 -0.12 0.12 -0.24 0.16 -0.36 z M39.2 29.880000000000003 c0 0.12 0.04 0.2 0.16 0.16 c0.04 0 0.12 -0.04 0.24 -0.12 l-0.2 -0.2 c-0.12 -0.04 -0.2 0.04 -0.2 0.16 z M30.04 29.759999999999998 c-0.08 -0.04 -0.2 0.2 -0.16 0.32 c0.04 0.16 0.04 0.32 0.12 0.44 c0 0.04 0.16 0.12 0.2 0.08 c0.04 0 0.12 -0.12 0.12 -0.2 s-0.2 -0.16 -0.08 -0.32 c0 0 0.04 -0.04 0.04 -0.08 c-0.08 -0.08 -0.12 -0.2 -0.24 -0.24 z M32.16 30.240000000000002 c0 0 0.04 -0.04 0.08 -0.04 c-0.04 -0.04 -0.04 -0.08 -0.08 -0.08 c-0.08 0.04 -0.08 0.08 0 0.12 z M40.32 30.2 l-0.08 -0.08 c0 0.04 -0.04 0.04 -0.04 0.08 l0.04 0.04 c0.04 -0.04 0.04 -0.04 0.08 -0.04 z M39.64 30.439999999999998 c0.04 0 0.04 -0.04 0.08 -0.08 c-0.04 0 -0.04 -0.04 -0.04 -0.04 c-0.08 0.04 -0.08 0.08 -0.04 0.12 z M31.2 30.72 c-0.12 0.04 -0.08 0.16 -0.04 0.24 s0.12 0.12 0.16 0.2 c0.04 0 0.12 0 0.16 -0.04 c0.08 -0.04 0.12 -0.12 0.2 -0.2 c-0.12 -0.12 -0.2 -0.2 -0.32 -0.24 c-0.04 -0.04 -0.12 0 -0.16 0.04 z M28.4 30.68 c-0.12 0.04 -0.16 0.08 -0.16 0.2 l0.2 0.2 c0.08 -0.12 0.12 -0.16 0.12 -0.24 c0.04 -0.12 -0.04 -0.16 -0.16 -0.16 z M29.4 31 c0.08 0 0.12 -0.08 0.24 -0.16 c-0.12 -0.08 -0.2 -0.16 -0.28 -0.16 s-0.16 0.08 -0.16 0.2 c0.04 0.12 0.08 0.16 0.2 0.12 z M41.36 30.8 c0.04 0 0.04 -0.04 0.08 -0.04 c-0.04 0 -0.04 -0.04 -0.04 -0.04 c-0.04 0 -0.08 0 -0.08 0.04 z M30.12 31 c0 -0.04 -0.04 -0.04 -0.08 -0.08 c-0.04 0.04 -0.04 0.08 -0.04 0.12 s0.04 0.08 0.08 0.12 c0 -0.04 0.04 -0.08 0.04 -0.16 z M40.36 31.4 c0.08 -0.04 0.12 -0.12 0.2 -0.2 c-0.12 -0.08 -0.16 -0.12 -0.24 -0.12 c-0.12 0 -0.16 0.08 -0.16 0.16 c0.04 0.12 0.12 0.2 0.2 0.16 z M28.44 31.439999999999998 c0.04 0.12 0.12 0.16 0.2 0.16 c0.08 -0.04 0.12 -0.12 0.2 -0.2 c-0.08 -0.08 -0.16 -0.12 -0.24 -0.12 s-0.16 0.04 -0.16 0.16 z M28.12 31.6 c0.04 0 0.04 -0.04 0.08 -0.08 c-0.04 0 -0.04 -0.04 -0.08 -0.04 l-0.04 0.04 c0 0.04 0.04 0.04 0.04 0.08 z M38.68 31.759999999999998 c0.04 -0.04 0.08 -0.08 0.08 -0.12 c0 -0.08 -0.04 -0.12 -0.04 -0.16 c-0.04 0.04 -0.08 0.08 -0.08 0.12 c0 0.08 0.04 0.12 0.04 0.16 z M29.48 31.759999999999998 l0.04 -0.04 l-0.04 -0.04 c-0.08 0 -0.08 0.04 0 0.08 z M39.84 31.759999999999998 c0 0 0.04 -0.04 0.08 -0.04 c-0.04 0 -0.04 -0.04 -0.08 -0.04 c0 0 -0.04 0 -0.04 0.04 z M29.36 32.2 c0.04 -0.16 -0.2 -0.36 -0.36 -0.28 c-0.08 0 -0.16 0.04 -0.24 0.08 c-0.04 0.04 -0.08 0.04 -0.08 0.08 l0.04 0.08 l0.6 0.12 s0.04 -0.04 0.04 -0.08 z M32.24 32.12 l-0.08 -0.08 c0 0.04 -0.04 0.04 -0.04 0.08 l0.04 0.04 c0.04 0 0.04 -0.04 0.08 -0.04 z M39.56 32.56 c0.04 0 0.08 -0.04 0.16 -0.04 c-0.04 -0.04 -0.08 -0.12 -0.12 -0.12 s-0.12 0.04 -0.16 0.08 c0.04 0 0.08 0.08 0.12 0.08 z M28.72 32.72 l0.04 -0.04 c0 -0.04 -0.04 -0.08 -0.04 -0.08 c-0.08 0.04 -0.08 0.08 0 0.12 z M30.48 32.68 c-0.04 0 -0.08 -0.04 -0.12 -0.08 c-0.12 0 -0.2 0.12 -0.2 0.24 c0 0 0.04 0.04 0.08 0.04 c0.08 -0.04 0.16 -0.12 0.24 -0.2 z M31.560000000000002 32.64 c0.04 0.04 0.08 0.12 0.12 0.12 s0.08 -0.04 0.12 -0.04 c0 -0.04 -0.04 -0.12 -0.08 -0.12 z M32.28 33.32 c-0.04 0.12 0.04 0.16 0.16 0.2 c0.12 0 0.2 -0.04 0.16 -0.16 c0 -0.08 -0.04 -0.12 -0.12 -0.24 z M30.32 33.92 c0.2 -0.04 0.4 -0.24 0.36 -0.48 c-0.04 0 -0.12 -0.08 -0.16 -0.08 c-0.2 0.04 -0.32 0.16 -0.36 0.36 c0 0.08 0.08 0.2 0.16 0.2 z M31.8 33.6 c-0.12 -0.08 -0.44 0.04 -0.44 0.2 c0 0.04 0.04 0.08 0.04 0.08 c0.16 0.12 0.4 0.04 0.44 -0.12 c0 -0.04 0 -0.12 -0.04 -0.16 z M28.32 33.68 c0 0 0.04 -0.04 0.08 -0.04 c-0.04 0 -0.04 -0.04 -0.08 -0.04 c-0.08 0 -0.08 0.04 0 0.08 z M31.84 34.44 c-0.08 -0.12 -0.16 -0.2 -0.24 -0.28 c-0.04 0.08 -0.08 0.12 -0.08 0.16 l0.12 0.2 c0.12 -0.04 0.16 -0.08 0.2 -0.08 z M28.92 34.84 c0.04 -0.04 0.04 -0.12 0.08 -0.16 l-0.12 -0.12 c0 0.08 -0.04 0.12 -0.04 0.16 s0.04 0.08 0.08 0.12 z M30.48 34.8 c0.04 -0.04 0.04 -0.12 0.04 -0.2 c0 0 -0.04 -0.04 -0.08 -0.04 c-0.04 0.04 -0.08 0.08 -0.08 0.12 c-0.04 0.08 0 0.16 0 0.2 c-0.08 0 -0.16 0 -0.2 0.04 c-0.08 0 -0.12 0.08 -0.16 0.16 s0.04 0.16 0.12 0.16 c0.08 0.04 0.2 0.04 0.28 0 c0.04 0 0.08 -0.08 0.04 -0.12 c0 -0.08 -0.04 -0.16 -0.08 -0.24 c0.04 -0.04 0.12 -0.04 0.12 -0.08 z M31.240000000000002 34.6 c0 0 0 -0.04 -0.04 -0.04 c0 0 -0.04 0 -0.04 0.04 l0.04 0.04 z M31.44 35.68 c-0.08 0.04 -0.08 0.12 -0.12 0.16 c0 0.04 0.04 0.16 0.08 0.16 c0.16 0 0.32 0.04 0.48 0.04 l0.08 0.12 l0.04 -0.04 c-0.04 -0.04 -0.08 -0.08 -0.12 -0.08 l0 -0.08 c-0.04 -0.28 -0.2 -0.4 -0.44 -0.28 z M37.68 35.76 l0.16 0.04 c0.04 0.04 0.08 -0.04 0.12 -0.04 c-0.04 -0.04 -0.08 -0.08 -0.12 -0.08 s-0.08 0.04 -0.16 0.08 z M32.76 35.96 c0.04 -0.04 0.08 -0.08 0.04 -0.16 l-0.08 -0.08 c0 0.04 -0.04 0.08 -0.04 0.16 c0 0.04 0.04 0.04 0.08 0.08 z M35.56 36.32 c0.04 -0.12 0.16 -0.24 0.12 -0.32 c-0.08 -0.2 -0.16 0.04 -0.28 0 l-0.4 -0.12 c-0.08 -0.04 -0.12 0.04 -0.2 0.04 c0 0 0.04 0.04 0.04 0.08 c0.08 0.16 0.2 0.32 0.32 0.44 c0 0.04 0.08 0.08 0.08 0.12 c0.04 0 0.08 -0.04 0.12 -0.04 c0.04 -0.08 0.12 -0.12 0.2 -0.2 z M33.72 36.24 l0.44 0.36 c0.04 0 0.12 -0.04 0.16 -0.08 c0.12 -0.24 0.04 -0.44 -0.2 -0.48 l-0.2 0 l-0.08 0 c-0.08 0 -0.12 0.04 -0.16 0.08 c-0.04 0 0 0.12 0.04 0.12 z M35.96 36.2 c-0.04 0.12 0.04 0.2 0.16 0.2 l0.24 -0.16 c-0.12 -0.08 -0.16 -0.16 -0.24 -0.16 c-0.12 -0.04 -0.16 0.04 -0.16 0.12 z M30 36.12 c0.04 0.08 0.08 0.08 0.12 0 c0 0 -0.04 -0.04 -0.08 -0.04 z M36.519999999999996 36.48 c0.04 0.08 0.04 0.12 0.08 0.16 c0.08 0.08 0.16 0.16 0.24 0.08 s0.12 -0.12 0.2 -0.24 c-0.12 0 -0.2 -0.08 -0.28 -0.08 s-0.16 0.08 -0.24 0.08 z M33.2 37.08 c0.08 -0.24 0 -0.4 -0.2 -0.56 c0 -0.04 -0.04 -0.04 -0.08 -0.04 c0 0 -0.04 0 -0.08 0.04 c-0.12 0.12 -0.2 0.28 -0.16 0.4 c0.08 0.12 0.16 0.24 0.36 0.24 c0.04 0 0.12 -0.04 0.16 -0.08 z M36 37.48 c0.16 0.16 0.4 0.28 0.6 0.44 c0.04 -0.04 0.08 -0.04 0.08 -0.08 c0.04 -0.04 0.12 -0.08 0.12 -0.12 c0.12 -0.16 0.12 -0.32 0 -0.44 c-0.08 -0.12 -0.2 -0.04 -0.32 0 l-0.16 0 c0 -0.16 0 -0.32 -0.04 -0.48 c0 -0.16 -0.16 -0.24 -0.36 -0.2 c-0.12 0.04 -0.2 0.16 -0.16 0.28 l0.12 0.36 c0.04 0.08 0.04 0.2 0.12 0.24 z M32.76 37.64 c0.04 0 0 -0.04 -0.04 -0.08 c-0.16 -0.12 -0.32 -0.28 -0.52 -0.4 c-0.24 -0.08 -0.28 -0.4 -0.48 -0.52 c-0.04 0 -0.16 0 -0.16 0.04 c-0.04 0.12 -0.04 0.24 -0.08 0.36 c0 0.12 0 0.24 -0.16 0.32 c-0.08 0.04 -0.2 0.04 -0.12 0.16 c0.04 0.08 0.12 0.2 0.2 0.2 c0.24 0.04 0.44 0.04 0.72 0.08 c0.16 0 0.32 -0.04 0.52 -0.04 c0.04 0 0.08 -0.08 0.12 -0.12 z M30.8 36.92 c0.04 0 0.08 -0.04 0.12 -0.08 c-0.04 -0.04 -0.04 -0.12 -0.08 -0.16 c-0.04 0.04 -0.08 0.08 -0.08 0.12 s0.04 0.08 0.04 0.12 z M35.16 37.76 c0.08 0 0.16 -0.08 0.16 -0.2 l-0.08 -0.12 c-0.16 -0.04 -0.32 -0.04 -0.48 -0.04 c0.04 -0.12 0.12 -0.24 0.16 -0.36 c0.04 -0.04 -0.04 -0.2 -0.12 -0.2 c-0.04 -0.04 -0.16 0.04 -0.2 0.08 c-0.12 0.16 -0.04 0.28 0.16 0.44 l0 0.04 c0.04 0.12 0.04 0.24 0.12 0.32 c0.04 0.04 0.16 0.04 0.28 0.04 z M29.28 37.52 c0.04 -0.04 0.08 -0.08 0.08 -0.12 c0 -0.08 -0.04 -0.12 -0.08 -0.16 c0 0.04 -0.08 0.08 -0.08 0.12 c0 0.08 0.04 0.12 0.08 0.16 z M39.32 37.8 c0.04 -0.12 -0.04 -0.2 -0.12 -0.2 s-0.12 0.08 -0.24 0.12 c0.08 0.12 0.12 0.16 0.2 0.2 c0.12 0.04 0.16 -0.04 0.16 -0.12 z M37.72 38.32 c0.12 -0.08 0.28 -0.16 0.28 -0.36 c0 -0.04 -0.04 -0.12 -0.08 -0.12 c-0.16 -0.12 -0.36 -0.12 -0.4 0 c-0.08 0.12 -0.08 0.24 -0.04 0.36 c0 0.04 0.16 0.12 0.24 0.12 z M34.480000000000004 38.48 c0.04 0 0.04 -0.04 0.08 -0.08 c0 -0.16 -0.16 -0.4 -0.28 -0.36 c-0.04 0 -0.08 0.04 -0.08 0.04 c-0.04 0.16 0.16 0.4 0.28 0.4 z M32.52 38.24 c0 0.08 0.04 0.08 0.08 0 l-0.04 -0.04 c-0.04 0 -0.04 0.04 -0.04 0.04 z M36.64 38.24 l-0.04 -0.04 c-0.04 0 -0.08 0 -0.08 0.04 l0.04 0.04 c0.04 0 0.04 0 0.08 -0.04 z M37.08 38.72 c0.08 -0.04 0.16 -0.08 0.16 -0.2 s-0.04 -0.16 -0.16 -0.16 s-0.2 0.08 -0.2 0.16 l0 0.2 l-0.2 0 c-0.12 0.04 -0.16 0.08 -0.16 0.2 s0.04 0.16 0.16 0.16 s0.2 -0.04 0.2 -0.16 l0 -0.2 l0.2 0 z M31.2 38.48 c0.04 0 0.04 0 0.08 -0.04 c-0.04 0 -0.04 -0.04 -0.08 -0.04 c0 0 -0.04 0 -0.04 0.04 z M37.72 38.68 c0.04 0 0.04 -0.04 0.08 -0.04 l-0.08 -0.08 s-0.04 0.04 -0.04 0.08 z M38.6 39.16 l0.12 -0.36 c-0.04 0 -0.12 -0.08 -0.16 -0.04 c-0.08 0.04 -0.2 0.12 -0.28 0.2 c-0.04 0.08 -0.04 0.2 0 0.24 c0.04 0.12 0.24 0.08 0.32 -0.04 z M35.6 38.88 c0.04 0 0.04 -0.04 0.08 -0.04 c0 -0.04 -0.04 -0.04 -0.04 -0.08 c-0.04 0.04 -0.08 0.04 -0.08 0.04 c0 0.04 0.04 0.08 0.04 0.08 z M32.56 39.08 l0.04 -0.04 c0 -0.04 -0.04 -0.04 -0.04 -0.08 l-0.04 0.04 c0 0.04 0 0.04 0.04 0.08 z M36.92 39.56 c0 0.12 0.08 0.12 0.12 0.04 c0 -0.04 -0.04 -0.04 -0.08 -0.08 c0 0.04 -0.04 0.04 -0.04 0.04 z M37.96 39.6 c0.04 -0.04 0 -0.04 -0.04 -0.08 c0 0.04 -0.04 0.04 -0.04 0.04 c0 0.08 0.04 0.12 0.08 0.04 z M47.959999999999994 38.36 l0 0.56 c0 0.2 -0.04 0.4 -0.04 0.56 c0 0.72 0.04 0.72 0.68 0.72 l1.56 0 c0.24 0 0.48 0.04 0.72 0.12 c0.36 0.08 0.76 0.16 1.12 -0.04 c0.32 -0.16 0.72 -0.12 1.04 -0.04 c0.76 0.24 1.52 0.12 2.28 0.12 c0.28 -0.24 0.68 -0.2 1 -0.16 c0.36 0 0.64 -0.16 1 -0.04 c0.36 0.08 0.8 0.04 1.16 0.04 c0.24 0 0.48 0.04 0.68 -0.08 c0.28 -0.12 0.56 -0.12 0.84 -0.12 c0.4 0.04 0.8 -0.16 1.2 -0.24 c0.24 -0.04 0.48 -0.28 0.72 -0.4 c0.44 -0.24 0.8 -0.52 1.04 -0.96 c0.04 -0.12 0.12 -0.2 0.24 -0.28 c0.28 -0.28 0.44 -0.6 0.6 -0.96 c0.24 -0.6 0.56 -1.16 0.44 -1.8 c0 -0.08 0 -0.16 0.04 -0.2 c0.2 -0.24 0.16 -0.56 0.16 -0.84 c0 -0.12 0 -0.28 0.04 -0.36 c0.2 -0.28 0.16 -0.56 0.16 -0.84 c0 -0.2 -0.04 -0.4 0.04 -0.56 c0.24 -0.6 0.12 -1.2 0.16 -1.8 l0 -1.56 l0 -1.24 c0 -0.16 0.24 -0.32 0.04 -0.52 l0 -2.08 c0 -0.12 0.12 -0.28 0.08 -0.36 c-0.24 -0.64 -0.08 -1.28 -0.12 -1.88 c0 -0.16 -0.04 -0.36 0.04 -0.48 c0.24 -0.44 0.16 -0.88 0.08 -1.32 c-0.04 -0.24 0 -0.52 -0.08 -0.8 c-0.12 -0.28 -0.04 -0.64 -0.08 -0.96 c0 -0.28 -0.12 -0.56 -0.16 -0.8 c0 -0.44 -0.04 -0.84 -0.16 -1.24 c-0.12 -0.36 0 -0.76 -0.2 -1.12 c0.04 -0.4 -0.16 -0.8 -0.2 -1.2 c-0.08 -0.28 -0.2 -0.56 -0.2 -0.84 c0 -0.24 -0.12 -0.48 -0.2 -0.72 c-0.32 -0.6 -0.76 -1.16 -1.28 -1.64 c-0.2 -0.24 -0.48 -0.44 -0.76 -0.56 c-0.2 -0.08 -0.4 -0.24 -0.6 -0.12 c-0.12 0.04 -0.16 0.24 -0.28 0.36 c-0.12 0.16 -0.24 0.32 -0.4 0.44 c-0.04 0.04 -0.16 0.04 -0.24 0.04 s-0.2 -0.12 -0.2 -0.12 l0.24 -0.52 c0.04 -0.16 0.04 -0.32 0.04 -0.48 c0 -0.04 -0.04 -0.12 -0.08 -0.16 c-0.24 -0.04 -0.56 -0.2 -0.8 -0.16 c-0.32 0.08 -0.6 0.08 -0.92 -0.04 c-0.28 -0.08 -0.64 0 -0.92 -0.12 c-0.28 -0.08 -0.56 -0.12 -0.84 -0.12 l-1.72 0 c-0.16 0 -0.28 -0.04 -0.4 0 c-0.52 0.24 -1.04 0.16 -1.6 0.2 c-0.16 0 -0.32 0.16 -0.44 0.12 c-0.16 -0.04 -0.28 -0.28 -0.44 -0.28 c-0.24 -0.04 -0.4 -0.24 -0.64 -0.12 c-0.36 0.12 -0.76 0.08 -1.12 0.08 l-1.44 0 c-0.36 -0.04 -0.64 0.12 -0.88 0.32 c-0.16 0.08 -0.24 0.24 -0.12 0.4 c0.04 0.12 0.12 0.28 0.08 0.36 c-0.16 0.28 0.04 0.56 0.04 0.8 l0 0.88 l0 0.76 c0 0.16 0 0.32 0.08 0.48 c0.12 0.2 0.08 0.4 0.08 0.64 l0 0.96 l0 0.96 c-0.28 0.28 0.04 0.6 0 0.88 c0 0.12 0 0.28 -0.04 0.36 c-0.2 0.4 -0.08 0.84 -0.12 1.24 c0.28 0.4 0.16 0.88 0.2 1.32 c0 1.92 0 3.84 -0.04 5.76 c0 1.04 0.2 2.08 -0.16 3.12 c-0.04 0.2 0.12 0.32 0.08 0.52 c-0.16 0.64 -0.12 1.28 0 1.92 c0 0.08 0 0.16 -0.04 0.24 c0 0.28 -0.04 0.52 -0.04 0.76 c0 0.28 -0.04 0.6 0 0.88 c0.08 0.24 0.08 0.48 0.04 0.72 c0.24 0.48 0.12 0.96 0.04 1.48 c-0.04 0.36 -0.12 0.72 -0.08 1.08 s0 0.72 0 1.08 z M56.36 10.719999999999999 c-0.04 0.04 -0.04 0.04 -0.08 0.04 l-0.04 -0.04 l0.04 -0.04 c0.04 0 0.04 0.04 0.08 0.04 z M50.919999999999995 10.84 c0.2 -0.04 0.44 0.16 0.44 0.36 c0 0.08 -0.04 0.16 -0.08 0.16 c-0.16 0.08 -0.44 -0.16 -0.44 -0.36 c0 -0.04 0.04 -0.08 0.08 -0.16 z M50.599999999999994 11.32 c-0.08 0.04 -0.16 0.08 -0.24 0.08 s-0.16 -0.08 -0.24 -0.12 l0.04 -0.04 l0.36 0 z M48.48 11.399999999999999 c0.08 0.04 0.12 0.04 0.16 0.08 l-0.08 0.08 c-0.08 0 -0.12 -0.04 -0.16 -0.04 c0.04 -0.04 0.08 -0.08 0.08 -0.12 z M49.839999999999996 11.8 c0.08 -0.08 0.12 -0.12 0.12 -0.16 c0.08 0.08 0.16 0.16 0.2 0.24 l-0.12 0.08 c-0.08 -0.04 -0.12 -0.12 -0.2 -0.16 z M49.279999999999994 12.36 c-0.16 0.32 -0.4 0.2 -0.64 0.16 c-0.08 0 -0.08 -0.08 0 -0.12 c0.2 -0.08 0.28 -0.2 0.28 -0.4 c0 -0.12 0.04 -0.2 0.16 -0.2 c0.2 0 0.2 0.16 0.2 0.28 l0 0.08 l0.2 0 l0.12 0.12 c-0.04 0 -0.08 0.04 -0.12 0.08 l-0.2 0 z M56.68 11.920000000000002 c-0.08 -0.04 -0.08 -0.08 0 -0.08 c0 -0.04 0.04 0 0.04 0.04 z M51.12 12 c0 0.04 0.04 0.08 0.04 0.08 c-0.04 0.04 -0.08 0.04 -0.08 -0.04 c-0.04 0 0 0 0.04 -0.04 z M53.64 12.079999999999998 c-0.04 0 -0.08 0.08 -0.16 0.08 c-0.04 0 -0.08 -0.08 -0.12 -0.08 c0.04 -0.04 0.08 -0.08 0.16 -0.08 c0.04 0 0.08 0.04 0.12 0.08 z M49.16 12.239999999999998 l0.12 0.12 l0 -0.2 z M49.599999999999994 12.760000000000002 c0.08 0.08 0.12 0.16 0.2 0.28 c0 0 0 0.04 -0.04 0.04 s-0.16 0.04 -0.16 0 c-0.04 -0.04 -0.08 -0.12 -0.08 -0.2 c-0.04 -0.04 0 -0.04 0.08 -0.12 z M59.44 13.04 c-0.04 0 -0.08 0.04 -0.08 0.04 c-0.08 -0.04 -0.08 -0.08 0 -0.12 c0.04 0 0.04 0.04 0.08 0.08 z M49.64 13.399999999999999 c-0.04 0.04 -0.04 0.08 -0.08 0.08 c-0.08 -0.04 -0.04 -0.08 0.04 -0.12 c0 0 0 0.04 0.04 0.04 z M48.36 13.879999999999999 c-0.12 0 -0.2 -0.04 -0.2 -0.16 s0.04 -0.2 0.16 -0.16 c0.04 0 0.12 0.04 0.24 0.12 z M48.8 14.239999999999998 c-0.04 -0.04 -0.04 -0.04 -0.04 -0.08 l0.04 -0.04 c0.04 0.04 0.04 0.04 0.04 0.08 c0 0 -0.04 0 -0.04 0.04 z M51.08 14.760000000000002 c0.04 -0.04 0.08 -0.08 0.12 -0.08 s0.12 0.04 0.16 0.08 c-0.08 0.04 -0.12 0.04 -0.16 0.08 z M58.48 21.2 c0 0.6 0.04 1.2 0 1.8 c0 0.28 0.04 0.52 -0.08 0.76 c-0.08 0.12 -0.12 0.32 -0.04 0.44 c0.16 0.44 0.12 0.8 0 1.2 c-0.08 0.4 -0.12 0.84 0.08 1.24 c0.08 0.16 0.04 0.36 0.04 0.56 c0.04 1 0 2.04 0.04 3.04 c0 0.36 -0.16 0.64 -0.04 1 c0.12 0.32 0.04 0.72 0 1.08 c-0.04 0.56 -0.2 1.6 -0.52 2.08 c-0.2 0.32 -0.44 0.6 -0.8 0.8 c-0.24 0.16 -0.56 0.32 -0.88 0.04 c-0.32 0.04 -0.56 -0.2 -0.88 -0.2 c-0.64 0 -0.96 -0.4 -1.16 -0.96 c-0.2 -0.52 -0.16 -1.08 -0.12 -1.6 c0.16 -0.24 0.08 -0.44 0 -0.72 c-0.04 -0.12 0.08 -0.28 0.12 -0.44 c0 -0.12 -0.08 -0.2 -0.08 -0.36 c0.16 -0.8 0.12 -1.24 0 -1.96 c-0.04 -0.08 -0.04 -0.2 0 -0.28 c0.12 -0.24 0.12 -0.44 0 -0.72 c-0.08 -0.08 -0.08 -0.24 -0.04 -0.36 c0.2 -0.6 0.2 -1.16 0 -1.76 c-0.04 -0.04 -0.04 -0.12 0 -0.16 c0.24 -0.36 0.16 -0.76 0.16 -1.12 c0 -1.88 0 -3.72 -0.04 -5.56 c0 -0.28 0.08 -0.6 -0.12 -0.84 c-0.04 -0.08 -0.04 -0.2 0 -0.28 c0.2 -0.36 0.08 -0.76 0.16 -1.12 c0.04 -0.32 0.08 -0.64 0.24 -0.92 c0.24 -0.4 0.6 -0.76 1.16 -0.64 l0.4 0 c0.24 -0.04 0.48 0.04 0.68 0.24 c0.12 0.2 0.28 0.36 0.56 0.36 c0.04 0 0.12 0 0.16 0.04 c0.2 0.44 0.6 0.76 0.64 1.24 c0.28 1.84 0.44 1.44 0.4 3.68 c-0.04 0.12 0 0.24 0 0.4 l-0.04 0 z M48.599999999999994 22.6 c0.04 0.04 0.08 0.08 0.08 0.12 s-0.04 0.08 -0.08 0.12 c0 -0.04 -0.08 -0.08 -0.08 -0.12 s0.08 -0.08 0.08 -0.12 z M59.519999999999996 39.44 c-0.16 0.08 -0.24 0.16 -0.28 0.12 c-0.08 0 -0.12 -0.12 -0.12 -0.16 c-0.04 -0.12 0.08 -0.2 0.16 -0.16 s0.12 0.12 0.24 0.2 z M72.24 14.84 c0.08 0.04 0.2 0.04 0.28 0.04 c0.04 0.04 0.08 0.12 0.08 0.16 s-0.04 0.12 -0.08 0.16 l-0.16 -0.12 l-0.12 -0.24 c-0.04 0 -0.08 0.04 -0.08 0.04 c-0.12 0.56 -0.36 1.08 -0.28 1.64 c0 0.36 0.04 0.76 -0.08 1.08 c-0.12 0.28 -0.08 0.6 -0.24 0.88 c-0.08 0.32 -0.12 0.64 -0.2 0.92 c0.24 0.32 -0.04 0.6 -0.04 0.92 c0 0.52 -0.2 1.04 -0.28 1.56 c-0.04 0.16 -0.12 0.32 -0.12 0.48 c0 0.36 -0.12 0.72 -0.24 1.12 c0 0.08 -0.12 0.24 -0.08 0.32 c0.12 0.28 -0.12 0.48 -0.08 0.72 c0 0.72 0.08 1.44 -0.36 2.04 c-0.12 0.64 -0.28 1.28 -0.4 1.96 c-0.08 0.32 -0.2 0.68 -0.2 1 c0.04 0.6 -0.24 1.12 -0.2 1.68 c-0.28 0.44 -0.08 0.96 -0.36 1.36 c0 0.52 -0.12 1.04 -0.2 1.52 c-0.04 0.56 -0.28 1.12 -0.2 1.68 c-0.24 0.36 -0.12 0.76 -0.28 1.12 s-0.04 0.76 -0.12 1.12 c0 0.08 -0.04 0.16 -0.08 0.28 c-0.08 0.36 -0.2 0.72 -0.28 1.08 c-0.04 0.32 0.08 0.48 0.32 0.64 c0.36 0.24 0.8 0.16 1.2 0.36 c0.16 0.08 0.36 -0.08 0.52 -0.12 c0.08 -0.04 0.2 0.04 0.28 0.08 c0.16 0.08 0.36 0.08 0.56 -0.04 c0.16 -0.08 0.32 -0.12 0.52 0 c0.12 0.04 0.24 0.08 0.36 0.04 c0.16 -0.08 0.28 -0.12 0.44 -0.12 c0.48 -0.12 0.96 -0.24 1 -0.84 c0 -0.08 0.12 -0.16 0.16 -0.24 c0.08 -0.12 0.16 -0.24 0.16 -0.32 c0 -0.44 0.08 -0.84 0.2 -1.24 c-0.08 -0.6 0.24 -1.16 0.4 -1.72 c0.16 -0.48 0.56 -0.84 1.04 -0.84 c0.6 0.04 1.24 -0.12 1.8 0.16 c0.12 0.04 0.32 -0.04 0.48 -0.08 c0.04 0 0.12 -0.08 0.16 -0.04 c0.36 0.2 0.76 0.12 1.12 0.16 c0.08 0 0.2 0.08 0.24 0.12 c0.2 0.24 0.32 0.48 0.36 0.76 c0.04 0.36 0.04 0.68 0.16 1.04 s-0.04 0.76 0.2 1.12 c-0.04 0.4 0.16 0.8 0.2 1.2 s0.28 0.64 0.64 0.76 c0.32 0.08 0.6 0.2 0.92 0.16 c0.84 0 1.68 0 2.48 0.04 c0.6 0.04 1.16 -0.12 1.72 -0.24 c0.04 0 0.16 -0.08 0.2 -0.16 c0.12 -0.2 0.16 -0.4 0.2 -0.6 c0.04 -0.96 -0.12 -1.92 -0.44 -2.92 c-0.08 -0.24 -0.16 -0.48 -0.16 -0.72 s-0.12 -0.32 -0.28 -0.44 c-0.24 -0.08 -0.2 -0.12 -0.04 -0.36 c0.08 -0.04 0.16 -0.16 0.12 -0.24 c-0.28 -0.52 -0.04 -1.12 -0.36 -1.64 c-0.04 -0.72 -0.28 -1.44 -0.48 -2.12 c-0.04 -0.08 -0.08 -0.16 -0.08 -0.28 c0 -0.48 -0.16 -0.92 -0.2 -1.4 c-0.04 -0.44 -0.16 -0.84 -0.24 -1.28 c-0.04 -0.12 -0.04 -0.24 -0.04 -0.36 c-0.08 -0.48 -0.24 -0.96 -0.28 -1.44 c-0.08 -0.32 -0.28 -0.6 -0.24 -0.92 c0.04 -0.28 -0.04 -0.52 -0.12 -0.76 c-0.12 -0.24 -0.08 -0.56 -0.16 -0.84 c-0.12 -0.6 -0.36 -1.2 -0.28 -1.84 c0 -0.16 -0.08 -0.32 -0.12 -0.48 c-0.04 -0.44 -0.28 -0.84 -0.28 -1.28 c0 -0.52 -0.16 -1 -0.32 -1.48 c-0.08 -0.2 -0.2 -0.4 -0.2 -0.6 c0 -0.44 -0.2 -0.84 -0.2 -1.24 s-0.24 -0.8 -0.24 -1.2 c0 -0.44 -0.2 -0.84 -0.28 -1.28 c-0.08 -0.4 -0.24 -0.8 -0.28 -1.2 c0 -0.64 -0.24 -1.24 -0.52 -1.8 c-0.24 -0.4 -0.56 -0.6 -1 -0.64 c-0.32 -0.04 -0.6 0 -0.92 -0.16 c-0.24 -0.08 -0.56 -0.04 -0.84 0.08 c-0.4 0.16 -0.84 0.16 -1.2 0 c-0.28 -0.08 -0.56 -0.12 -0.84 -0.12 c-0.64 0 -1.16 0.24 -1.76 0.36 c-0.68 0.12 -0.84 0.72 -1.12 1.16 c-0.08 0.12 0.12 0.28 0.04 0.44 c-0.16 0.36 -0.12 0.76 -0.24 1.12 c-0.12 0.4 -0.04 0.88 -0.04 1.32 z M76.07999999999998 18.72 c-0.04 0.04 -0.08 0.12 -0.12 0.12 c-0.04 0.04 -0.16 0 -0.16 0 c-0.04 -0.12 -0.08 -0.24 -0.08 -0.36 c0 -0.04 0.04 -0.08 0.08 -0.12 c0.04 0 0.08 0.04 0.08 0.04 c0.12 0.08 0.2 0.16 0.2 0.32 z M73.91999999999999 19.36 c-0.04 0.04 -0.04 0.08 -0.08 0.08 c-0.24 0.08 -0.4 0 -0.56 -0.2 c-0.04 -0.08 -0.04 -0.12 0.04 -0.12 c0.24 -0.12 0.44 -0.04 0.56 0.16 c0.04 0.04 0.04 0.08 0.04 0.08 z M74.88 19.36 c0 0.04 -0.04 0.04 -0.04 0.04 c-0.04 0 -0.04 -0.04 -0.04 -0.04 s0 -0.04 0.04 -0.04 z M72.39999999999999 20.08 c-0.08 -0.12 -0.12 -0.2 -0.12 -0.24 c-0.04 -0.12 0.04 -0.16 0.16 -0.16 s0.2 0.08 0.16 0.16 s-0.12 0.12 -0.2 0.24 z M81.03999999999999 21.08 c-0.04 0.04 -0.04 0.08 -0.08 0.08 c0 0 -0.04 -0.04 -0.04 -0.08 l0.04 -0.04 c0.04 0 0.04 0.04 0.08 0.04 z M72.71999999999998 21.88 c-0.04 -0.04 -0.08 -0.08 -0.08 -0.12 s0.04 -0.08 0.08 -0.12 l0.08 0.12 z M73.51999999999998 21.76 c0.08 0.04 0.2 0.08 0.24 0.12 c0 0.04 -0.08 0.12 -0.12 0.2 l-0.16 -0.16 c-0.04 -0.04 0.04 -0.12 0.04 -0.16 z M77.99999999999999 28.04 c0 0.36 -0.04 0.68 0 1.04 s-0.12 0.64 -0.28 0.92 c-0.08 0.12 -0.16 0.16 -0.36 0.08 c-0.36 -0.12 -0.68 -0.04 -1.04 0.08 c-0.28 0.12 -0.6 0.32 -1 0.28 c-0.44 -0.08 -0.76 -0.36 -0.8 -0.8 c-0.04 -0.8 0.08 -1.56 0.48 -2.28 c0.28 -0.48 0.28 -1 0.48 -1.52 c0 -0.8 0.36 -1.52 0.48 -2.28 c0.04 -0.2 0.12 -0.4 0.12 -0.56 c0 -0.36 0.16 -0.6 0.32 -0.88 c0.08 -0.12 0.2 -0.12 0.32 -0.04 c0.2 0.08 0.36 0.16 0.32 0.4 c0 0.2 0.12 0.36 0.16 0.56 c0.2 0.68 0.36 1.36 0.44 2.12 c0 0.28 0.08 0.6 0.2 0.88 c0.12 0.44 0.16 0.88 0.16 1.32 l0 0.68 z M82.96 32.519999999999996 c0 0.04 -0.04 0.08 -0.08 0.16 c0 -0.08 -0.08 -0.12 -0.04 -0.16 c0 -0.04 0.04 -0.08 0.08 -0.16 c0 0.08 0.04 0.12 0.04 0.16 z M79.24 32.56 c0.04 0 0.04 0.04 0.04 0.04 c-0.04 0.08 -0.08 0.08 -0.08 0 z M77.39999999999999 33.76 c0 0 0 -0.04 0.04 -0.12 c0 -0.04 0.04 -0.08 0.04 -0.08 c0.04 0 0.08 0.04 0.12 0.08 l0.12 0.24 c0.08 0.12 0 0.16 -0.08 0.24 c-0.04 0.04 -0.12 0.08 -0.12 0.04 c-0.04 0 -0.08 -0.08 -0.08 -0.16 c-0.04 -0.04 -0.04 -0.12 -0.04 -0.24 z M79.24 33.8 l-0.16 0.04 c-0.08 -0.04 -0.08 -0.12 0 -0.12 c0.08 -0.04 0.12 0 0.16 0 l0 0.08 z M84.03999999999999 34.4 c0 -0.04 -0.04 -0.04 -0.04 -0.08 l0.04 -0.04 c0.04 0 0.04 0.04 0.08 0.08 c-0.04 0 -0.08 0.04 -0.08 0.04 z M78.91999999999999 34.72 c0 0.04 -0.04 0.08 -0.04 0.08 c-0.08 -0.04 -0.08 -0.12 0 -0.12 z M84.23999999999998 35.04 c0 0.04 0.04 0.04 0.04 0.08 c-0.04 0.08 -0.08 0.04 -0.08 -0.04 c0 0 0.04 0 0.04 -0.04 z M84.27999999999999 36 c0.08 0.08 0.12 0.2 0.16 0.28 c-0.04 0.04 -0.08 0.08 -0.16 0.04 c-0.08 0 -0.16 -0.04 -0.12 -0.16 c0 -0.04 0.04 -0.08 0.12 -0.16 z M79.99999999999999 36.04 l0.04 0 l-0.04 0.08 l0 -0.08 z M81.99999999999999 37.8 c-0.04 0 -0.04 0.04 -0.08 0.04 c-0.04 -0.04 -0.04 -0.08 0.04 -0.08 c0 0 0 0.04 0.04 0.04 z M80.99999999999999 38 l-0.04 0 l0.04 -0.04 l0 0.04 z"/></g>
			</g>
		</svg>
	